<svg width="390" height="55" viewBox="0 0 390 55" fill="none" xmlns="http://www.w3.org/2000/svg">
<path d="M71.9097 52.5973V13.5956H78.7827L95.5437 39.957L96.5907 42.5237L96.3677 39.7351V13.5859H103.183V52.5877H96.5325L79.5486 25.8982L78.4531 23.3316L78.7246 26.0623V52.5877H71.9097V52.5973Z" fill="white"/>
<path fill-rule="evenodd" clip-rule="evenodd" d="M108.728 44.9938C108.728 50.1368 112.188 53.4175 119.061 53.4175C125.605 53.4175 129.841 50.407 131.984 46.3158L132.749 52.607H138.575V31.3789C138.575 26.8342 136.928 23.4956 132.808 21.7491C130.714 20.8131 128.077 20.3789 124.616 20.3789C115.542 20.3789 110.269 25.078 109.774 32.2473H117.19C117.413 28.1947 119.769 25.9561 124.994 25.9561C129.938 25.9561 131.644 27.5965 131.644 30.221C131.644 32.7973 129.395 33.5596 123.734 34.2736C119.769 34.8815 117.413 35.3158 115.542 35.9719C114.66 36.2421 113.73 36.6859 112.848 37.2842C110.269 38.8666 108.728 41.4912 108.728 44.9938ZM131.702 38.3745C131.702 41.385 129.996 44.5596 126.923 46.4701C125.382 47.3965 123.627 47.8886 121.524 47.8886C118.228 47.8886 116.58 46.5763 116.58 43.9517C116.58 42.5815 117.19 41.4912 118.451 40.671C119.944 39.7447 121.475 39.3008 125.324 38.7026C128.183 38.2587 130.384 37.6026 131.702 36.6763V38.3745Z" fill="white"/>
<path d="M145.226 52.5973V21.1412H151.323L151.982 27.4324C153.688 23.1096 157.256 20.3789 162.704 20.3789C170.343 20.3789 174.405 25.4157 174.405 33.2315V52.5973H167.154V34.978C167.154 29.835 165.506 26.6122 160.339 26.6122C154.949 26.6122 152.477 30.3368 152.477 36.1842V52.5973H145.226Z" fill="white"/>
<path fill-rule="evenodd" clip-rule="evenodd" d="M179.688 36.6763V37.4965C179.688 47.7824 185.398 53.4175 195.625 53.4175C202.052 53.4175 206.841 50.8991 209.584 46.1421C210.903 43.7877 211.562 40.9412 211.562 37.4965V36.6763C211.562 29.7289 208.702 24.8561 203.865 22.2894C201.509 20.9772 198.814 20.3789 195.625 20.3789C189.411 20.3789 184.516 22.9456 181.772 27.7605C180.405 30.1631 179.688 33.1736 179.688 36.6763ZM204.253 36.6763V37.3903C204.253 43.6236 201.063 47.1263 195.625 47.1263C190.245 47.1263 187.055 43.6236 187.055 37.3903V36.6763C187.055 30.0087 190.516 26.5061 195.683 26.5061C200.899 26.5061 204.253 30.221 204.253 36.6763Z" fill="white"/>
<path d="M241.071 48.4386C239.093 51.4491 235.797 53.4176 230.795 53.4176C221.237 53.4176 216.012 47.7825 216.012 35.2579V31.4851C216.012 19.0088 222.497 12.8912 233.16 12.8912C242.942 12.8912 248.438 18.0921 248.875 27.114H241.342C241.284 25.6377 240.954 24.4316 240.353 23.1772C239.258 20.8228 237.106 19.2983 233.044 19.2983C226.394 19.2983 223.369 23.3509 223.369 31.7746V34.9974C223.311 43.4211 226.336 46.9719 232.821 46.9719C234.915 46.9719 236.505 46.586 237.765 45.7658C240.295 44.1833 241.391 41.3369 241.449 38.3263H231.891V32.1316H249.039V52.5877H243.601L243.048 43.3439C242.67 45.1579 242.001 46.9044 241.071 48.4386Z" fill="white"/>
<path fill-rule="evenodd" clip-rule="evenodd" d="M259.431 8.27893C256.242 8.27893 254.652 9.48507 254.652 12.9877C254.652 16.5965 255.971 17.7447 259.431 17.7447C262.669 17.7447 264.211 16.3745 264.211 12.9877C264.211 9.48507 262.621 8.27893 259.431 8.27893ZM262.999 21.1412H255.69V52.5974H262.999V21.1412Z" fill="white"/>
<path fill-rule="evenodd" clip-rule="evenodd" d="M268.107 44.9938C268.107 50.1368 271.568 53.4175 278.441 53.4175C284.985 53.4175 289.211 50.407 291.363 46.3158L292.129 52.607H297.955V31.3789C297.955 26.8342 296.307 23.4956 292.187 21.7491C290.094 20.8131 287.457 20.3789 283.996 20.3789C274.922 20.3789 269.649 25.078 269.154 32.2473H276.57C276.793 28.1947 279.149 25.9561 284.374 25.9561C289.318 25.9561 291.024 27.5965 291.024 30.221C291.024 32.7973 288.775 33.5596 283.114 34.2736C279.149 34.8815 276.793 35.3158 274.922 35.9719C274.04 36.2421 273.11 36.6859 272.227 37.2842C269.649 38.8666 268.107 41.4912 268.107 44.9938ZM291.082 38.3745C291.082 41.385 289.386 44.5596 286.303 46.4701C284.762 47.3965 283.007 47.8886 280.913 47.8886C277.617 47.8886 275.969 46.5763 275.969 43.9517C275.969 42.5815 276.58 41.4912 277.84 40.671C279.323 39.7447 280.855 39.3008 284.704 38.7026C287.563 38.2587 289.764 37.6026 291.082 36.6763V38.3745Z" fill="white"/>
<path d="M304.605 52.5973V21.1412H310.703L311.362 27.4324C313.068 23.1096 316.636 20.3789 322.074 20.3789C329.713 20.3789 333.775 25.4157 333.775 33.2315V52.5973H326.524V34.978C326.524 29.835 324.876 26.6122 319.709 26.6122C314.329 26.6122 311.847 30.3368 311.847 36.1842V52.5973H304.605Z" fill="white"/>
<path d="M353.57 52.5973C350.604 52.5973 348.297 52.1631 346.755 51.4491C343.566 49.8666 342.577 46.4122 342.577 40.0149V27.4807H336.421V21.4114H339.223C340.27 21.4114 340.978 21.3052 341.482 21.0833C342.529 20.5912 342.858 19.385 343.023 16.8184C343.081 15.4482 343.13 13.5956 343.13 12.6596H349.285V21.1412H357.642V27.4903H349.285V38.8087C349.285 40.8833 349.45 42.4175 349.722 43.4596C350.216 45.5342 351.864 45.9201 355.383 45.9201H357.632V52.5973H353.57Z" fill="white"/>
<path d="M360.172 42.1956H367.976C368.635 45.9201 371.213 47.3965 375.721 47.3965C380.335 47.3965 382.148 45.8622 382.148 43.3438C382.148 42.4175 381.761 41.6456 380.937 41.1535C379.347 40.2272 376.594 39.8412 373.569 39.407C370.709 38.9728 367.801 38.4807 365.436 37.2166C363.07 35.9526 361.587 33.8298 361.587 30.3272C361.587 24.528 365.93 20.3693 374.616 20.3693C383.68 20.3693 387.8 24.2482 388.682 30.5394H381.315C380.82 27.4807 378.736 26.1105 374.558 26.1105C370.05 26.1105 368.674 27.6929 368.674 29.8833C368.674 30.8096 369.061 31.5815 369.885 32.0737C371.475 33 374.286 33.3859 377.301 33.8201C380.161 34.2544 383.069 34.7465 385.435 36.0105C387.8 37.2649 389.283 39.3973 389.283 42.9C389.283 48.9693 384.882 53.3982 375.547 53.3982C365.833 53.4175 361.103 49.5289 360.172 42.1956Z" fill="white"/>
<path d="M11.8743 0V15.8921H36.4584C36.313 23.6307 33.492 30.9351 26.997 35.0167C23.7495 37.1298 19.6489 38.114 14.2784 38.114C8.95637 38.114 4.53588 37.1781 0.997559 35.2V54.1123C3.5374 54.4982 6.21295 54.7009 9.05331 54.7009C21.9076 54.7009 30.3899 49.6351 35.4696 41.9061C37.8737 37.9693 39.5702 33.4728 40.5589 28.8316L41.9743 52.5974H55.9628V0H11.8743Z" fill="white"/>
</svg>
