<?xml version="1.0" standalone="no"?>
<!DOCTYPE svg PUBLIC "-//W3C//DTD SVG 1.1//EN" "http://www.w3.org/Graphics/SVG/1.1/DTD/svg11.dtd">
<svg xmlns="http://www.w3.org/2000/svg"><metadata>This SVG WebFont was generated by YouWorkForThem.
Copyright © 2015 Stefan Kjartansson. All rights reserved.</metadata><defs><font horiz-adv-x="290" id="ywftsvg"><font-face ascent="1638" bbox="-133 -236 2433 3301" cap-height="1434" descent="-410" font-family="" font-stretch="normal" font-weight="400" panose-1="0 0 5 0 0 0 0 0 0 0" underline-position="0" underline-thickness="0" unicode-range="U+0020-FB02" units-per-em="2048" x-height="1307"/><missing-glyph horiz-adv-x="512"/><glyph glyph-name=".notdef" horiz-adv-x="512"/><glyph glyph-name="glyph1" horiz-adv-x="0"/><glyph glyph-name="glyph2" horiz-adv-x="681"/><glyph glyph-name="space" horiz-adv-x="90" unicode=" "/><glyph d="M133 1434v-1094h-123v1094h123zM10 0v319h123v-319h-123z" glyph-name="exclam" horiz-adv-x="143" unicode="!"/><glyph d="M10 791v643h125v-643h-125zM156 791v643h125v-643h-125z" glyph-name="quotedbl" unicode="&quot;"/><glyph d="M905 897h-258l-67 -346h258v-21h-263l-102 -530h-20l102 530h-274l-103 -530h-20l102 530h-250v21h254l68 346h-254v21h258l100 516h21l-101 -516h275l100 516h21l-101 -516h254v-21zM559 551l68 346h-275l-67 -346h274z" glyph-name="numbersign" horiz-adv-x="915" unicode="#"/><glyph d="M283 842h-125v489h-21v-473q0 -29 36 -61.5t73 -80.5t37 -114v-475q0 -131 -127 -137v-117h-21v117q-125 6 -125 137v508h125v-531h21v514q0 37 -50.5 76t-73 78t-22.5 88v447q0 135 127 137v119h21v-119q66 -4 95.5 -36t29.5 -101v-465z" glyph-name="dollar" horiz-adv-x="292" unicode="$"/><glyph d="M10 1307q0 137 136 137t137 -137v-473q0 -137 -136 -138q-137 0 -137 138v473zM156 813v516h-21v-516h21zM532 1444h23l-520 -1454h-25zM283 604q0 133 136 133t136 -133v-481q0 -133 -136 -133t-136 133v481zM430 104v519h-20v-519h20z" glyph-name="percent" horiz-adv-x="565" unicode="%"/><glyph d="M135 774h178v-115h-30v-534q-1 -133 -137 -133t-136 133v467q0 115 80 123v4q-80 6 -80 129v461q0 135 136 135t137 -135v-514h-125v534h-23v-555zM158 109v550h-23v-550h23z" glyph-name="ampersand" horiz-adv-x="323" unicode="&amp;"/><glyph d="M10 791v643h125l-33 -643h-92z" glyph-name="quotesingle" horiz-adv-x="147" unicode="'"/><glyph d="M10 717q0 393 76 717h20q-76 -324 -76 -717t76 -717h-20q-76 324 -76 717z" glyph-name="parenleft" horiz-adv-x="116" unicode="("/><glyph d="M86 717q0 393 -76 717h21q75 -324 75 -717t-75 -717h-21q76 324 76 717z" glyph-name="parenright" horiz-adv-x="116" unicode=")"/><glyph d="M336 774h-25v307l-266 -151l-12 18l266 156l-266 156l12 18l266 -152v308h25v-308l266 152l12 -18l-266 -156l266 -156l-12 -18l-266 151v-307z" glyph-name="asterisk" horiz-adv-x="647" unicode="*"/><glyph d="M403 780v-131h-133v-131h-131v131h-129v131h129v131h131v-131h133z" glyph-name="plus" horiz-adv-x="413" unicode="+"/><glyph d="M10 0v643h125l-33 -643h-92z" glyph-name="comma" horiz-adv-x="145" unicode=","/><glyph d="M166 602h-156v105h156v-105z" glyph-name="hyphen" horiz-adv-x="176" unicode="-"/><glyph d="M10 0v319h123v-319h-123z" glyph-name="period" horiz-adv-x="143" unicode="."/><glyph d="M184 1434h21l-185 -1434h-20z" glyph-name="slash" horiz-adv-x="204" unicode="/"/><glyph d="M10 125v1186q0 70 33 101.5t102.5 31.5t102.5 -32t33 -101v-1186q0 -135 -135.5 -135t-135.5 135zM162 106v1223h-33v-1223h33z" glyph-name="zero" unicode="0"/><glyph d="M166 106h33v-106h-189v106h33v1221h-33v107h156v-1328z" glyph-name="one" horiz-adv-x="208" unicode="1"/><glyph d="M135 104h146v-104h-271v68q0 164 73 388t73 310v563h-21v-575h-125v553q0 72 32 104.5t103.5 32.5t103.5 -33t32 -104v-514q0 -119 -73 -346.5t-73 -342.5z" glyph-name="two" unicode="2"/><glyph d="M281 1311v-461q0 -123 -80 -131v-4q80 -8 80 -121v-469q0 -135 -135.5 -135t-135.5 135v520h125v-541h21v562h-41v104h41v559h-21v-538h-125v520q0 70 33 101.5t102.5 31.5t102.5 -31.5t33 -101.5z" glyph-name="three" unicode="3"/><glyph d="M313 391v-104h-30v-287h-125v287h-148v104l74 1043h199v-1043h30zM158 391v936h-8l-25 -936h33z" glyph-name="four" horiz-adv-x="323" unicode="4"/><glyph d="M135 1327v-459h4q18 25 58 25q84 0 84 -84v-684q0 -135 -135.5 -135t-135.5 135v588h125v-607h21v672h-21v-43h-125v699h271v-107h-146z" glyph-name="five" unicode="5"/><glyph d="M281 950h-125v379h-21v-416h4q18 25 58 25q84 0 84 -84v-729q0 -135 -135.5 -135t-135.5 135v1184q0 135 135.5 135t135.5 -135v-359zM156 831h-21v-727h21v727z" glyph-name="six" unicode="6"/><glyph d="M10 1327v107h168v-107l-41 -1327h-127l41 1327h-41z" glyph-name="seven" horiz-adv-x="188" unicode="7"/><glyph d="M156 793v536h-21v-536h21zM135 686v-580h21l2 580h-23zM10 860v447q0 72 32 104.5t103.5 32.5t103.5 -33t32 -104v-447q0 -113 -80 -119v-4q80 -12 80 -123v-495q0 -129 -135.5 -129t-135.5 129v495q0 111 80 123v4q-80 6 -80 119z" glyph-name="eight" unicode="8"/><glyph d="M10 483h125v-379h21v416h-4q-18 -25 -58 -24q-84 0 -84 84v729q0 135 135.5 135t135.5 -135v-1184q0 -135 -135.5 -135t-135.5 135v358zM135 602h21v725h-21v-725z" glyph-name="nine" unicode="9"/><glyph d="M10 0v319h123v-319h-123zM10 987v320h123v-320h-123z" glyph-name="colon" horiz-adv-x="143" unicode=":"/><glyph d="M10 0v645h125l-33 -645h-92zM10 987v320h123v-320h-123z" glyph-name="semicolon" horiz-adv-x="145" unicode=";"/><glyph d="M502 760l-400 -39v-6l400 -37v-131l-492 49v246l492 49v-131z" glyph-name="less" horiz-adv-x="512" unicode="&lt;"/><glyph d="M403 727h-393v104h393v-104zM403 602h-393v105h393v-105z" glyph-name="equal" horiz-adv-x="413" unicode="="/><glyph d="M10 891l492 -49v-246l-492 -49v131l400 37v6l-400 39v131z" glyph-name="greater" horiz-adv-x="512" unicode=">"/><glyph d="M10 0v188h127v-188h-127zM135 532v-323h-125v307q0 51 22.5 94t73 82t50.5 80v559h-21v-575h-125v551q0 72 32 104.5t103.5 32.5t103.5 -33t32 -104v-533q0 -49 -22.5 -88t-73 -78t-50.5 -76z" glyph-name="question" unicode="?"/><glyph d="M129 301v762q0 167 17.5 233t65 107t187.5 41h4q141 0 200.5 -51t65 -144.5t5.5 -185.5v-893q0 -66 -23.5 -92.5t-99.5 -26.5t-107 60h-8q-12 -59 -93 -59t-81 75v1057q0 137 139 137t140 -137v-1026q0 -39 9 -52.5t45 -13.5t46 14.5t10 51.5v905q0 202 -24.5 258.5 t-80 78t-132.5 21.5q-76 0 -119 -7t-70.5 -31.5t-50 -56.5t-22.5 -263v-762q0 -158 14 -221.5t60 -101t175 -37.5v-23q-140 0 -200 50t-66 144.5t-6 188.5zM414 168v1036h-25v-1036h25z" glyph-name="at" horiz-adv-x="802" unicode="@"/><glyph d="M174 0l-4 287h-33l-4 -287h-123l27 1434h233l27 -1434h-123zM137 391h33l-12 946h-8z" glyph-name="A" horiz-adv-x="307" unicode="A"/><glyph d="M281 1311v-473q0 -109 -80 -119v-6q80 -8 80 -119v-471q0 -123 -119 -123h-152v1434h152q119 -4 119 -123zM156 768v559h-21v-559h21zM135 664v-560h21v560h-21z" glyph-name="B" unicode="B"/><glyph d="M281 727h-125v602h-21v-1225h21v605h125v-586q0 -133 -135.5 -133t-135.5 133v1188q0 133 135.5 133t135.5 -133v-584z" glyph-name="C" unicode="C"/><glyph d="M10 1434h135q72 0 104 -32t32 -104v-1165q0 -72 -32 -102.5t-104 -30.5h-135v1434zM156 104v1223h-21v-1223h21z" glyph-name="D" unicode="D"/><glyph d="M166 1327h-31v-559h31v-104h-31v-560h31v-104h-156v1434h156v-107z" glyph-name="E" horiz-adv-x="176" unicode="E"/><glyph d="M166 1327h-31v-559h31v-104h-31v-664h-125v1434h156v-107z" glyph-name="F" horiz-adv-x="176" unicode="F"/><glyph d="M289 793h-123v536h-33v-1223h33v560h-16v104h139v-645q0 -133 -139.5 -133t-139.5 133v1186q0 70 33 101.5t106.5 31.5t106.5 -32t33 -101v-518z" glyph-name="G" horiz-adv-x="299" unicode="G"/><glyph d="M156 1434h125v-1434h-125v664h-21v-664h-125v1434h125v-666h21v666z" glyph-name="H" unicode="H"/><glyph d="M10 0v1434h123v-1434h-123z" glyph-name="I" horiz-adv-x="143" unicode="I"/><glyph d="M10 104h31v1330h125v-1301q0 -70 -33 -101.5t-102 -31.5h-21v104z" glyph-name="J" horiz-adv-x="176" unicode="J"/><glyph d="M137 664v-664h-127v1434h127v-666h8l33 666h127l-49 -717l49 -717h-127l-33 664h-8z" glyph-name="K" horiz-adv-x="315" unicode="K"/><glyph d="M135 1434v-1330h31v-104h-156v1434h125z" glyph-name="L" horiz-adv-x="176" unicode="L"/><glyph d="M543 1434v-1434h-125v1337h-8l-23 -1337h-221l-23 1337h-8v-1337h-125v1434h250l12 -1340h9l12 1340h250z" glyph-name="M" horiz-adv-x="552" unicode="M"/><glyph d="M285 1434h127v-1434h-244l-23 1337h-8v-1337h-127v1434h244l22 -1340h9v1340z" glyph-name="N" horiz-adv-x="421" unicode="N"/><glyph d="M145.5 1444q69.5 0 102.5 -32t33 -101v-1188q0 -133 -135.5 -133t-135.5 133v1188q0 70 33 101.5t102.5 31.5zM156 104v1225h-21v-1225h21z" glyph-name="O" unicode="O"/><glyph d="M10 1434h135q135 0 136 -136v-878q0 -133 -136 -133h-10v-287h-125v1434zM156 391v936h-21v-936h21z" glyph-name="P" unicode="P"/><glyph d="M281 1311v-1080q0 -61 -16.5 -86.5t-65.5 -33.5v-7h82v-104h-136q-70 0 -102.5 31.5t-32.5 101.5v1178q0 70 33 101.5t102.5 31.5t102.5 -31.5t33 -101.5zM156 104v1225h-21v-1225h21z" glyph-name="Q" unicode="Q"/><glyph d="M156 768v559h-21v-559h21zM281 1311v-473q0 -109 -80 -119v-6q80 -8 80 -119v-594h-125v664h-21v-664h-125v1434h152q119 -4 119 -123z" glyph-name="R" unicode="R"/><glyph d="M135 104h21v517q0 36 -50.5 75t-73 78t-22.5 88v445q0 72 32 104.5t103.5 32.5t103.5 -33t32 -104v-463h-125v487h-21v-471q0 -41 50.5 -80t73 -82t22.5 -94v-477q0 -137 -135.5 -137t-135.5 137v510h125v-533z" glyph-name="S" unicode="S"/><glyph d="M10 1434h189v-107h-33v-1327h-123v1327h-33v107z" glyph-name="T" horiz-adv-x="208" unicode="T"/><glyph d="M156 1434h125v-1309q0 -135 -135.5 -135t-135.5 135v1309h125v-1330h21v1330z" glyph-name="U" unicode="U"/><glyph d="M174 1434h123l-27 -1434h-233l-27 1434h123l17 -1330h8z" glyph-name="V" horiz-adv-x="307" unicode="V"/><glyph d="M412 1434h131l-41 -1434h-209l-12 1327h-9l-12 -1327h-209l-41 1434h131l13 -1330h8l12 1330h205l12 -1330h8z" glyph-name="W" horiz-adv-x="552" unicode="W"/><glyph d="M297 1434l-37 -717l37 -717h-123l-16 664h-8l-17 -664h-123l37 717l-37 717h123l17 -666h8l16 666h123z" glyph-name="X" horiz-adv-x="307" unicode="X"/><glyph d="M215 0h-123v440l-82 994h123l17 -813h8l16 813h123l-82 -994v-440z" glyph-name="Y" horiz-adv-x="307" unicode="Y"/><glyph d="M10 1327v107h168v-107l-41 -1223h41v-104h-168v104l41 1223h-41z" glyph-name="Z" horiz-adv-x="188" unicode="Z"/><glyph d="M172 1413h-135v-1393h135v-20h-156v1434h156v-21z" glyph-name="bracketleft" horiz-adv-x="188" unicode="["/><glyph d="M180 0l-184 1434h20l185 -1434h-21z" glyph-name="backslash" horiz-adv-x="200" unicode="\"/><glyph d="M152 20v1393h-136v21h156v-1434h-156v20h136z" glyph-name="bracketright" horiz-adv-x="188" unicode="]"/><glyph d="M293 971h-121l-16 368h-9l-16 -368h-121l25 463h233z" glyph-name="asciicircum" horiz-adv-x="303" unicode="^"/><glyph d="M0 -49v24h467v-24h-467z" glyph-name="underscore" horiz-adv-x="466" unicode="_"/><glyph d="M365 1561h-115l-60 106h134z" glyph-name="grave" horiz-adv-x="374" unicode="`"/><glyph d="M10 768v414q0 135 135.5 135t135.5 -135v-1182h-125v25h-6q-23 -35 -66 -35q-74 0 -74 76v614q0 74 74 74q43 0 66 -33h6v481h-21v-434h-125zM156 104v535h-21v-535h21z" glyph-name="a" unicode="a"/><glyph d="M156 1200h-21v-1096h21v1096zM281 1239v-1173q0 -76 -74 -76q-43 0 -66 35h-6v-25h-125v1434h125v-154h6q23 37 66 37q74 0 74 -78z" glyph-name="b" unicode="b"/><glyph d="M281 666h-125v536h-21v-1098h21v541h125v-522q0 -133 -135.5 -133t-135.5 133v1059q0 135 135.5 135t135.5 -135v-516z" glyph-name="c" unicode="c"/><glyph d="M156 104v1096h-21v-1096h21zM10 66v1173q0 78 74 78q43 0 66 -37h6v154h125v-1434h-125v25h-6q-23 -35 -66 -35q-74 0 -74 76z" glyph-name="d" unicode="d"/><glyph d="M135 602v-498h21v480h125v-461q0 -133 -135.5 -133t-135.5 133v1059q0 135 135.5 135t135.5 -135v-580h-146zM156 1202h-21v-495h21v495z" glyph-name="e" unicode="e"/><glyph d="M199 1327h-33v-74h33v-104h-33v-1149h-123v1149h-33v104h33v43q0 137 135 138h21v-107z" glyph-name="f" horiz-adv-x="208" unicode="f"/><glyph d="M156 1307h125v-1309q0 -135 -135.5 -135t-135.5 135v2h125v-23h21v80h-6q-23 -35 -66 -34q-74 0 -74 75v1143q0 76 74 76q43 0 66 -37h6v27zM135 137h21v1065h-21v-1065z" glyph-name="g" unicode="g"/><glyph d="M135 1280h6q23 37 66 37q74 0 74 -78v-1239h-125v1200h-21v-1200h-125v1434h125v-154z" glyph-name="h" unicode="h"/><glyph d="M10 0v1307h123v-1307h-123zM10 1327v107h123v-107h-123z" glyph-name="i" horiz-adv-x="143" unicode="i"/><glyph d="M10 1327v107h125v-107h-125zM-10 -127v104h20v1330h125v-1299q0 -76 -29.5 -105.5t-105.5 -29.5h-10z" glyph-name="j" horiz-adv-x="145" unicode="j"/><glyph d="M137 610v-610h-127v1434h127v-740h4l37 613h127l-57 -654l57 -653h-127l-37 610h-4z" glyph-name="k" horiz-adv-x="315" unicode="k"/><glyph d="M10 1434h123v-1434h-123v1434z" glyph-name="l" horiz-adv-x="143" unicode="l"/><glyph d="M354 1317q74 0 74 -78v-1239h-125v1200h-22v-1200h-123v1200h-23v-1200h-125v1307h125v-27h6q23 37 71 37t67 -37h6q20 37 69 37z" glyph-name="m" horiz-adv-x="438" unicode="m"/><glyph d="M135 1280h6q23 37 66 37q74 0 74 -78v-1239h-125v1200h-21v-1200h-125v1307h125v-27z" glyph-name="n" unicode="n"/><glyph d="M145.5 -10q-135.5 0 -135.5 133v1059q0 135 135.5 135t135.5 -135v-1059q0 -133 -135.5 -133zM135 104h21v1098h-21v-1098z" glyph-name="o" unicode="o"/><glyph d="M135 1202v-1096h21v1096h-21zM281 1241v-1173q0 -78 -74 -78q-43 0 -66 37h-6v-154h-125v1434h125v-25h6q23 35 66 35q74 0 74 -76z" glyph-name="p" unicode="p"/><glyph d="M135 1200v-1096h21v1096h-21zM281 1239v-1173q0 -76 -74 -76q-43 0 -66 35h-6v-152h-125v1434h125v-27h6q23 37 66 37q74 0 74 -78z" glyph-name="q" unicode="q"/><glyph d="M135 1282h6q25 35 66 35q74 0 74 -76v-602h-125v563h-21v-1202h-125v1307h125v-25z" glyph-name="r" unicode="r"/><glyph d="M178.5 1317q102.5 0 102.5 -139v-422h-125v446h-21v-430q0 -32 50.5 -62t73 -65t22.5 -82v-436q0 -137 -135.5 -137t-135.5 137v442h125v-463h21v447q0 29 -37 53.5t-73 62.5t-36 101v408q0 72 33 105.5t135.5 33.5z" glyph-name="s" unicode="s"/><glyph d="M199 1202h-33v-1098h33v-104h-33q-76 0 -99.5 22.5t-23.5 100.5v1079h-33v105h33v79h123v-79h33v-105z" glyph-name="t" horiz-adv-x="208" unicode="t"/><glyph d="M156 25h-6q-23 -37 -66 -37q-74 0 -74 78v1241h125v-1203h21v1203h125v-1307h-125v25z" glyph-name="u" unicode="u"/><glyph d="M164 1307h121l-27 -1307h-221l-27 1307h121l12 -1215h9z" glyph-name="v" horiz-adv-x="294" unicode="v"/><glyph d="M543 1307l-41 -1307h-209l-12 1202h-9l-12 -1202h-209l-41 1307h125l19 -1203h8l4 1203h221l4 -1203h8l19 1203h125z" glyph-name="w" horiz-adv-x="552" unicode="w"/><glyph d="M297 1307l-37 -656l37 -651h-123l-16 600h-8l-17 -600h-123l37 651l-37 656h123l17 -602h8l16 602h123z" glyph-name="x" horiz-adv-x="307" unicode="x"/><glyph d="M86 -127h-66v104h43l-53 1330h125l12 -1235h9l12 1235h125l-49 -1299q-2 -78 -38 -106.5t-120 -28.5z" glyph-name="y" horiz-adv-x="303" unicode="y"/><glyph d="M10 1202v105h168v-105l-41 -1098h41v-104h-168v104l41 1098h-41z" glyph-name="z" horiz-adv-x="188" unicode="z"/><glyph d="M16 272q0 102 51.5 213t51.5 147t-22.5 56.5t-53.5 20.5h-31v18h31q76 0 76 82q0 29 -51.5 138.5t-51.5 213.5q0 160 86 273h27q-92 -100 -92 -273q0 -104 51 -212.5t51 -138.5t-14 -56.5t-33 -28.5v-10q18 -8 32.5 -35.5t14.5 -57.5t-51 -137.5t-51 -212.5 q0 -168 92 -272h-27q-86 113 -86 272z" glyph-name="braceleft" horiz-adv-x="153" unicode="{"/><glyph d="M16 0v1434h21v-1434h-21z" glyph-name="bar" horiz-adv-x="53" unicode="|"/><glyph d="M8 622q0 30 14.5 57.5t32.5 35.5v10q-18 2 -32.5 28.5t-14.5 56.5t51.5 138.5t51.5 212.5q0 172 -93 273h27q86 -113 86 -273q0 -104 -51 -213.5t-51 -138.5q0 -82 75 -82h31v-18h-31q-31 0 -53 -20.5t-22 -56.5t51 -146.5t51 -213.5q0 -159 -86 -272h-27q92 104 93 272 q0 104 -51.5 212t-51.5 138z" glyph-name="braceright" horiz-adv-x="147" unicode="}"/><glyph d="M10 659q0 129 84 129q40 0 85.5 -16t53.5 -16q18 0 19 20h98v-2q0 -70 -27.5 -99.5t-68.5 -29.5t-82 16.5t-49 16.5q-14 0 -14 -21h-99v2z" glyph-name="asciitilde" horiz-adv-x="360" unicode="~"/><glyph d="M10 1094h123v-1094h-123v1094zM133 1114h-123v320h123v-320z" glyph-name="exclamdown" horiz-adv-x="143" unicode="¡"/><glyph d="M281 668h-125v536h-21v-1098h21v541h125v-522q0 -133 -135.5 -133t-135.5 133v1059q0 135 135.5 135t135.5 -135v-516zM156 1434h-21v-226h21v226zM156 98v-225h-21v225h21z" glyph-name="cent" unicode="¢"/><glyph d="M281 883h-125v430h-21v-398q0 -84 23 -210h123v-21h-121q51 -270 51 -384t-82 -185h152v-115h-271v115q34 25 58 73t24 94t-6 100t-13 93t-19.5 106.5t-18.5 102.5h-25v21h23q-23 143 -23 245v350q0 137 135.5 137.5t135.5 -137.5v-417z" glyph-name="sterling" unicode="£"/><glyph glyph-name="currency" horiz-adv-x="1228" unicode="¤"/><glyph d="M446 627v-27h-81v-27h81v-26h-81v-547h-156v547h-82v26h82v27h-82v27h72l-88 807h155l17 -807h8l16 807h156l-88 -807h71z" glyph-name="yen" horiz-adv-x="573" unicode="¥"/><glyph d="M10 801v633h21v-633h-21zM10 0v635h21v-635h-21z" glyph-name="brokenbar" horiz-adv-x="40" unicode="¦"/><glyph d="M236 723h-25v-121h25v121zM393 903h-157v397h-25v-401q0 -27 28.5 -43t62.5 -27.5t62.5 -47.5t28.5 -93v-6q0 -139 -100 -152v-6q98 -8 100 -143v-344q0 -88 -41 -130t-129 -42t-129 42t-41 130v385h158v-414h25v418q0 27 -29 43t-62.5 26.5t-62.5 46.5t-29 95v6 q0 137 101 152v6q-98 8 -101 143v328q0 88 41 130t129 42t129 -42t41 -130v-369z" glyph-name="section" horiz-adv-x="446" unicode="§"/><glyph d="M10 1327v107h123v-107h-123zM154 1327v107h122v-107h-122z" glyph-name="dieresis" horiz-adv-x="286" unicode="¨"/><glyph d="M742 -16q-376 0 -554 179t-178 556t179 556t555 179t555.5 -179t179.5 -556t-180.5 -556t-556.5 -179zM742 4q366 0 541 174t175 540.5t-175 541t-541 174.5t-538.5 -174.5t-172.5 -541t172.5 -540.5t538.5 -174zM881 721h-125v414h-21v-832h21v397h125v-378 q0 -133 -135.5 -133.5t-135.5 133.5v792q0 135 135.5 135t135.5 -135v-393z" glyph-name="copyright" horiz-adv-x="1488" unicode="©"/><glyph d="M217 246l-166 471l166 471h21l-166 -471l166 -471h-21zM176 246l-166 471l166 471h21l-166 -471l166 -471h-21z" glyph-name="guillemotleft" horiz-adv-x="247" unicode="«"/><glyph d="M10 780h393v-274h-137v137h-256v137z" glyph-name="logicalnot" horiz-adv-x="413" unicode="¬"/><glyph d="M411 709q-181 0 -265.5 88t-84.5 280q-1 371 349 371t350 -371q0 -193 -84 -280.5t-265 -87.5zM411 729q169 0 248.5 83t79.5 265q-1 350 -329 350t-328 -350q0 -182 80 -265t249 -83zM530 1255v-118q0 -80 -57 -88v-2q57 -6 57 -84v-162h-110v205h-21v-205h-106v542h153 q84 0 84 -88zM420 1094v159h-21v-159h21z" glyph-name="registered" horiz-adv-x="821" unicode="®"/><glyph glyph-name="macron" horiz-adv-x="1228" unicode="¯"/><glyph d="M124 1219q-46 0 -80 33.5t-34 79.5t34 80t80 34t81 -34t35 -80t-35 -79.5t-81 -33.5zM124 1243q36 0 63.5 26.5t27.5 62.5t-27.5 62.5t-63.5 26.5t-62.5 -26.5t-26.5 -62.5t26.5 -62.5t62.5 -26.5z" glyph-name="degree" horiz-adv-x="249" unicode="°"/><glyph d="M270 862h133v-131h-133v-131h-131v131h-129v131h129v131h131v-131zM10 444v131h393v-131h-393z" glyph-name="plusminus" horiz-adv-x="413" unicode="±"/><glyph d="M10 1327l41 107h133l-59 -107h-115z" glyph-name="acute" horiz-adv-x="194" unicode="´"/><glyph d="M145 1434h283v-1561h-125v1454h-22v-1454h-123v1049h-13q-135 0 -135 135v239q0 138 135 138z" glyph-name="paragraph" horiz-adv-x="438" unicode="¶"/><glyph d="M10 553v319h123v-319h-123z" glyph-name="periodcentered" horiz-adv-x="143" unicode="·"/><glyph d="M31 88v-225h-21v225h21z" glyph-name="cedilla" horiz-adv-x="40" unicode="¸"/><glyph d="M31 1188l166 -471l-166 -471h-21l166 471l-166 471h21zM72 1188l166 -471l-166 -471h-21l166 471l-166 471h21z" glyph-name="guillemotright" horiz-adv-x="247" unicode="»"/><glyph d="M166 106h33v-106h-189v106h33v1221h-33v107h156v-1328zM393 1434h21l-185 -1434h-20zM727 391v-104h-31v-287h-125v287h-147v104l74 1043h198v-1043h31zM571 391v936h-8l-24 -936h32z" glyph-name="onequarter" horiz-adv-x="737" unicode="¼"/><glyph d="M166 106h33v-106h-189v106h33v1221h-33v107h156v-1328zM393 1434h21l-185 -1434h-20zM549 104h145v-104h-270v68q0 164 72.5 388t72.5 310v563h-20v-575h-125v553q0 72 31.5 104.5t103.5 32.5t103.5 -33t31.5 -104v-514q0 -119 -72.5 -346.5t-72.5 -342.5z" glyph-name="onehalf" horiz-adv-x="704" unicode="½"/><glyph d="M281 1311v-461q0 -123 -80 -131v-4q80 -8 80 -121v-469q0 -135 -135.5 -135t-135.5 135v520h125v-541h21v562h-41v104h41v559h-21v-538h-125v520q0 70 33 101.5t102.5 31.5t102.5 -31.5t33 -101.5zM475 1434h21l-185 -1434h-20zM809 391v-104h-31v-287h-125v287h-147v104 l74 1043h198v-1043h31zM653 391v936h-8l-24 -936h32z" glyph-name="threequarters" horiz-adv-x="819" unicode="¾"/><glyph d="M281 1434v-189h-127v189h127zM156 901v324h125v-307q0 -51 -22.5 -94.5t-73 -82.5t-50.5 -79v-560h21v576h125v-551q0 -72 -32 -104.5t-103.5 -32.5t-103.5 32.5t-32 104.5v532q0 49 22.5 88t73 78t50.5 76z" glyph-name="questiondown" unicode="¿"/><glyph d="M174 0l-4 287h-33l-4 -287h-123l27 1434h233l27 -1434h-123zM137 391h33l-12 946h-8zM207 1446h-115l-59 106h133z" glyph-name="Agrave" horiz-adv-x="307" unicode="À"/><glyph d="M174 0l-4 287h-33l-4 -287h-123l27 1434h233l27 -1434h-123zM137 391h33l-12 946h-8zM88 1444l41 106h133l-59 -106h-115z" glyph-name="Aacute" horiz-adv-x="307" unicode="Á"/><glyph d="M174 0l-4 287h-33l-4 -287h-123l27 1434h233l27 -1434h-123zM137 391h33l-12 946h-8zM166 1454l-10 27h-4l-11 -27h-112l37 107h176l37 -107h-113z" glyph-name="Acircumflex" horiz-adv-x="307" unicode="Â"/><glyph d="M174 0l-4 287h-33l-4 -287h-123l27 1434h233l27 -1434h-123zM137 391h33l-12 946h-8zM18 1456q0 103 66 103q32 0 69 -12.5t45 -12.5t10.5 2t2.5 12h78q0 -55 -21.5 -79.5t-53.5 -24.5t-65.5 13t-39.5 13q-12 0 -13 -14h-78z" glyph-name="Atilde" horiz-adv-x="307" unicode="Ã"/><glyph d="M18 1454v107h123v-107h-123zM162 1454v107h123v-107h-123zM174 0l-4 287h-33l-4 -287h-123l27 1434h233l27 -1434h-123zM137 391h33l-12 946h-8z" glyph-name="Adieresis" horiz-adv-x="307" unicode="Ä"/><glyph d="M174 0l-4 287h-33l-4 -287h-123l27 1434h233l27 -1434h-123zM137 391h33l-12 946h-8zM156 1444q-64 0 -66 55q0 61 65 61t64 -61q1 -55 -63 -55z" glyph-name="Aring" horiz-adv-x="307" unicode="Å"/><glyph d="M332 1327h-33v-559h33v-104h-33v-560h33v-104h-156v287h-35l-8 -287h-123l51 1434h271v-107zM176 391v946h-8l-25 -946h33z" glyph-name="AE" horiz-adv-x="342" unicode="Æ"/><glyph d="M281 727h-125v602h-21v-1225h21v605h125v-586q0 -133 -135.5 -133t-135.5 133v1188q0 133 135.5 133t135.5 -133v-584zM156 98v-225h-21v225h21z" glyph-name="Ccedilla" unicode="Ç"/><glyph d="M166 1327h-31v-559h31v-104h-31v-560h31v-104h-156v1434h156v-107zM145 1454h-114l-60 107h133z" glyph-name="Egrave" horiz-adv-x="176" unicode="È"/><glyph d="M166 1327h-31v-559h31v-104h-31v-560h31v-104h-156v1434h156v-107zM31 1454l41 107h133l-60 -107h-114z" glyph-name="Eacute" horiz-adv-x="176" unicode="É"/><glyph d="M166 1327h-31v-559h31v-104h-31v-560h31v-104h-156v1434h156v-107zM100 1454l-10 27h-4l-10 -27h-113l37 107h176l37 -107h-113z" glyph-name="Ecircumflex" horiz-adv-x="176" unicode="Ê"/><glyph d="M166 1327h-31v-559h31v-104h-31v-560h31v-104h-156v1434h156v-107zM-47 1454v107h123v-107h-123zM96 1454v107h123v-107h-123z" glyph-name="Edieresis" horiz-adv-x="176" unicode="Ë"/><glyph d="M10 0v1434h123v-1434h-123zM127 1454h-115l-59 107h133z" glyph-name="Igrave" horiz-adv-x="143" unicode="Ì"/><glyph d="M10 0v1434h123v-1434h-123zM14 1454l41 107h133l-59 -107h-115z" glyph-name="Iacute" horiz-adv-x="143" unicode="Í"/><glyph d="M82 1454l-10 27h-4l-11 -27h-112l37 107h176l37 -107h-113zM10 0v1434h123v-1434h-123z" glyph-name="Icircumflex" horiz-adv-x="143" unicode="Î"/><glyph d="M10 0v1434h123v-1434h-123zM-61 1454v107h122v-107h-122zM82 1454v107h123v-107h-123z" glyph-name="Idieresis" horiz-adv-x="143" unicode="Ï"/><glyph d="M27 1434h135q135 0 135 -138v-1163q0 -70 -33 -101.5t-102 -31.5h-135v664h-17v104h17v666zM172 104v1223h-31v-559h17v-104h-17v-560h31z" glyph-name="Eth" horiz-adv-x="307" unicode="Ð"/><glyph d="M285 1434h127v-1434h-244l-23 1337h-8v-1337h-127v1434h244l22 -1340h9v1340zM82 1454q0 102 66 102q32 0 69 -12t44 -12q13 0 13 14h78q0 -55 -22 -79.5t-54 -24.5t-65 13t-39 13q-12 0 -12 -14h-78z" glyph-name="Ntilde" horiz-adv-x="421" unicode="Ñ"/><glyph d="M145.5 1444q69.5 0 102.5 -32t33 -101v-1188q0 -133 -135.5 -133t-135.5 133v1188q0 70 33 101.5t102.5 31.5zM156 104v1225h-21v-1225h21zM2259 3195l41 106h133l-59 -106h-115zM207 1454h-115l-59 107h133z" glyph-name="Ograve" unicode="Ò"/><glyph d="M145.5 1444q69.5 0 102.5 -32t33 -101v-1188q0 -133 -135.5 -133t-135.5 133v1188q0 70 33 101.5t102.5 31.5zM156 104v1225h-21v-1225h21zM86 1454l41 107h133l-59 -107h-115z" glyph-name="Oacute" unicode="Ó"/><glyph d="M145.5 1444q69.5 0 102.5 -32t33 -101v-1188q0 -133 -135.5 -133t-135.5 133v1188q0 70 33 101.5t102.5 31.5zM156 104v1225h-21v-1225h21zM158 1454l-11 27h-4l-10 -27h-113l37 107h176l37 -107h-112z" glyph-name="Ocircumflex" unicode="Ô"/><glyph d="M145.5 1444q69.5 0 102.5 -32t33 -101v-1188q0 -133 -135.5 -133t-135.5 133v1188q0 70 33 101.5t102.5 31.5zM156 104v1225h-21v-1225h21zM14 1466q0 103 66 103q32 0 69 -12.5t45 -12.5t10.5 2t2.5 13h78q0 -55 -21.5 -80t-53.5 -25t-65 13.5t-43 13.5t-10 -15h-78z " glyph-name="Otilde" unicode="Õ"/><glyph d="M145.5 1444q69.5 0 102.5 -32t33 -101v-1188q0 -133 -135.5 -133t-135.5 133v1188q0 70 33 101.5t102.5 31.5zM156 104v1225h-21v-1225h21zM12 1454v107h123v-107h-123zM156 1454v107h123v-107h-123z" glyph-name="Odieresis" unicode="Ö"/><glyph d="M475 831l-115 -114l115 -117l-117 -115l-114 115l-115 -115l-117 117l115 115l-117 114l117 117l117 -114l114 114z" glyph-name="multiply" horiz-adv-x="485" unicode="×"/><glyph d="M291 1311v-1188q0 -133 -135 -133q-86 0 -117 51l-8 -41h-21l15 78q-4 25 -5 45v1188q0 70 33 101.5t111 31.5t108 -51l9 41h20l-14 -76q4 -29 4 -47zM166 104v1225h-21v-1225h21z" glyph-name="Oslash" horiz-adv-x="311" unicode="Ø"/><glyph d="M156 1434h125v-1309q0 -135 -135.5 -135t-135.5 135v1309h125v-1330h21v1330zM201 1454h-115l-59 107h133z" glyph-name="Ugrave" unicode="Ù"/><glyph d="M156 1434h125v-1309q0 -135 -135.5 -135t-135.5 135v1309h125v-1330h21v1330zM86 1454l41 107h133l-59 -107h-115z" glyph-name="Uacute" unicode="Ú"/><glyph d="M156 1434h125v-1309q0 -135 -135.5 -135t-135.5 135v1309h125v-1330h21v1330zM156 1454l-11 27h-4l-10 -27h-113l37 107h176l37 -107h-112z" glyph-name="Ucircumflex" unicode="Û"/><glyph d="M12 1454v107h123v-107h-123zM156 1454v107h123v-107h-123zM156 1434h125v-1309q0 -135 -135.5 -135t-135.5 135v1309h125v-1330h21v1330z" glyph-name="Udieresis" unicode="Ü"/><glyph d="M215 0h-123v440l-82 994h123l17 -813h8l16 813h123l-82 -994v-440zM94 1454l41 107h133l-59 -107h-115z" glyph-name="Yacute" horiz-adv-x="307" unicode="Ý"/><glyph d="M135 1307h10q135 0 136 -136v-909q0 -133 -136 -133h-10v-129h-125v1434h125v-127zM156 233v967h-21v-967h21z" glyph-name="Thorn" unicode="Þ"/><glyph d="M281 1307v-459q0 -123 -80 -131v-4q80 -12 80 -121v-459q0 -70 -33 -101.5t-103 -31.5v102h15v562h-15v104h15v561h-29v-1329h-121v1307q0 137 135.5 137t135.5 -137z" glyph-name="germandbls" unicode="ß"/><glyph d="M209 1327h-115l-59 107h133zM10 768v414q0 135 135.5 135t135.5 -135v-1182h-125v25h-6q-23 -35 -66 -35q-74 0 -74 76v614q0 74 74 74q43 0 66 -33h6v481h-21v-434h-125zM156 104v535h-21v-535h21z" glyph-name="agrave" unicode="à"/><glyph d="M88 1327l41 107h133l-59 -107h-115zM10 768v414q0 135 135.5 135t135.5 -135v-1182h-125v25h-6q-23 -35 -66 -35q-74 0 -74 76v614q0 74 74 74q43 0 66 -33h6v481h-21v-434h-125zM156 104v535h-21v-535h21z" glyph-name="aacute" unicode="á"/><glyph d="M160 1327l-10 27h-5l-10 -27h-112l36 107h177l36 -107h-112zM10 768v414q0 135 135.5 135t135.5 -135v-1182h-125v25h-6q-23 -35 -66 -35q-74 0 -74 76v614q0 74 74 74q43 0 66 -33h6v481h-21v-434h-125zM156 104v535h-21v-535h21z" glyph-name="acircumflex" unicode="â"/><glyph d="M10 768v414q0 135 135.5 135t135.5 -135v-1182h-125v25h-6q-23 -35 -66 -35q-74 0 -74 76v614q0 74 74 74q43 0 66 -33h6v481h-21v-434h-125zM156 104v535h-21v-535h21zM10 1341q0 103 66 103q32 0 69 -12.5t44 -12.5t10.5 2t3.5 13h78q0 -55 -21.5 -80t-54.5 -25 t-66 13.5t-39 13.5q-12 0 -12 -15h-78z" glyph-name="atilde" unicode="ã"/><glyph d="M10 768v414q0 135 135.5 135t135.5 -135v-1182h-125v25h-6q-23 -35 -66 -35q-74 0 -74 76v614q0 74 74 74q43 0 66 -33h6v481h-21v-434h-125zM156 104v535h-21v-535h21zM12 1327v107h123v-107h-123zM156 1327v107h123v-107h-123z" glyph-name="adieresis" unicode="ä"/><glyph d="M213 1382q-1 -55 -65 -55t-64 55q0 62 64 62t65 -62zM10 768v414q0 135 135.5 135t135.5 -135v-1182h-125v25h-6q-23 -35 -66 -35q-74 0 -74 76v614q0 74 74 74q43 0 66 -33h6v481h-21v-434h-125zM156 104v535h-21v-535h21z" glyph-name="aring" unicode="å"/><glyph d="M283 1202v-500h22v500h-22zM430 618h-147v-512h22v492h125v-473q0 -135 -135 -135q-74 0 -109 59h-4q-12 -59 -92 -59t-80 76v641q0 74 76 73q43 0 66 -35h6v457h-23v-409h-125v389q0 135 135 135q51 0 84 -17q33 16 66 17q135 0 135 -135v-564zM135 666v-560h23v560h-23 z" glyph-name="ae" horiz-adv-x="440" unicode="æ"/><glyph d="M281 666h-125v536h-21v-1098h21v541h125v-522q0 -133 -135.5 -133t-135.5 133v1059q0 135 135.5 135t135.5 -135v-516zM156 98v-225h-21v225h21z" glyph-name="ccedilla" unicode="ç"/><glyph d="M209 1327h-115l-59 107h133zM135 602v-498h21v480h125v-461q0 -133 -135.5 -133t-135.5 133v1059q0 135 135.5 135t135.5 -135v-580h-146zM156 1202h-21v-495h21v495z" glyph-name="egrave" unicode="è"/><glyph d="M86 1327l41 107h133l-59 -107h-115zM135 602v-498h21v480h125v-461q0 -133 -135.5 -133t-135.5 133v1059q0 135 135.5 135t135.5 -135v-580h-146zM156 1202h-21v-495h21v495z" glyph-name="eacute" unicode="é"/><glyph d="M158 1327l-11 27h-4l-10 -27h-113l37 107h176l37 -107h-112zM135 602v-498h21v480h125v-461q0 -133 -135.5 -133t-135.5 133v1059q0 135 135.5 135t135.5 -135v-580h-146zM156 1202h-21v-495h21v495z" glyph-name="ecircumflex" unicode="ê"/><glyph d="M135 602v-498h21v480h125v-461q0 -133 -135.5 -133t-135.5 133v1059q0 135 135.5 135t135.5 -135v-580h-146zM156 1202h-21v-495h21v495zM12 1327v107h123v-107h-123zM156 1327v107h123v-107h-123z" glyph-name="edieresis" unicode="ë"/><glyph d="M66 0v1307h122v-1307h-122zM184 1327h-114l-60 107h133z" glyph-name="igrave" horiz-adv-x="198" unicode="ì"/><glyph d="M12 0v1307h123v-1307h-123zM16 1327l41 107h133l-59 -107h-115z" glyph-name="iacute" horiz-adv-x="200" unicode="í"/><glyph d="M74 0v1307h123v-1307h-123zM147 1327l-10 27h-4l-10 -27h-113l37 107h176l37 -107h-113z" glyph-name="icircumflex" horiz-adv-x="270" unicode="î"/><glyph d="M84 0v1307h123v-1307h-123zM10 1327v107h123v-107h-123zM154 1327v107h122v-107h-122z" glyph-name="idieresis" horiz-adv-x="286" unicode="ï"/><glyph d="M281 121q0 -133 -135.5 -133t-135.5 133v1118q0 78 74 78q43 0 66 -37h6q-10 39 -31 72l-82 -9v21l70 6q-18 25 -54 64h121l35 -52l66 7v-21l-56 -6q55 -106 56 -275v-966zM156 102v1098h-21v-1098h21z" glyph-name="eth" unicode="ð"/><glyph d="M135 1280h6q23 37 66 37q74 0 74 -78v-1239h-125v1200h-21v-1200h-125v1307h125v-27zM10 1341q0 103 66 103q32 0 69 -12.5t44 -12.5t10.5 2t3.5 13h78q0 -55 -21.5 -80t-54.5 -25t-66 13.5t-39 13.5q-12 0 -12 -15h-78z" glyph-name="ntilde" unicode="ñ"/><glyph d="M207 1327h-115l-59 107h133zM145.5 -10q-135.5 0 -135.5 133v1059q0 135 135.5 135t135.5 -135v-1059q0 -133 -135.5 -133zM135 104h21v1098h-21v-1098z" glyph-name="ograve" unicode="ò"/><glyph d="M84 1327l41 107h133l-59 -107h-115zM145.5 -10q-135.5 0 -135.5 133v1059q0 135 135.5 135t135.5 -135v-1059q0 -133 -135.5 -133zM135 104h21v1098h-21v-1098z" glyph-name="oacute" unicode="ó"/><glyph d="M158 1327l-11 27h-4l-10 -27h-113l37 107h176l37 -107h-112zM145.5 -10q-135.5 0 -135.5 133v1059q0 135 135.5 135t135.5 -135v-1059q0 -133 -135.5 -133zM135 104h21v1098h-21v-1098z" glyph-name="ocircumflex" unicode="ô"/><glyph d="M145.5 -10q-135.5 0 -135.5 133v1059q0 135 135.5 135t135.5 -135v-1059q0 -133 -135.5 -133zM135 104h21v1098h-21v-1098zM10 1341q0 103 66 103q32 0 69 -12.5t44 -12.5t10.5 2t3.5 13h78q0 -55 -21.5 -80t-54.5 -25t-66 13.5t-39 13.5q-12 0 -12 -15h-78z" glyph-name="otilde" unicode="õ"/><glyph d="M10 1327v107h123v-107h-123zM154 1327v107h122v-107h-122zM145.5 -10q-135.5 0 -135.5 133v1059q0 135 135.5 135t135.5 -135v-1059q0 -133 -135.5 -133zM135 104h21v1098h-21v-1098z" glyph-name="odieresis" unicode="ö"/><glyph d="M154 788q-82 0 -82 82t82 82t82 -82t-82 -82zM236 561q0 -82 -82 -82t-82 82t82 82t82 -82zM297 768v-104h-287v104h287z" glyph-name="divide" horiz-adv-x="307" unicode="÷"/><glyph d="M291 1184v-1061q0 -133 -135 -133q-86 0 -117 51l-8 -41h-21l15 78q-4 25 -5 45v1061q0 70 33 101.5t111 31.5t108 -51l9 41h20l-14 -76q4 -29 4 -47zM166 104v1098h-21v-1098h21z" glyph-name="oslash" horiz-adv-x="311" unicode="ø"/><glyph d="M205 1327h-115l-59 107h133zM156 25h-6q-23 -37 -66 -37q-74 0 -74 78v1241h125v-1203h21v1203h125v-1307h-125v25z" glyph-name="ugrave" unicode="ù"/><glyph d="M156 25h-6q-23 -37 -66 -37q-74 0 -74 78v1241h125v-1203h21v1203h125v-1307h-125v25zM90 1327l41 107h133l-59 -107h-115z" glyph-name="uacute" unicode="ú"/><glyph d="M156 25h-6q-23 -37 -66 -37q-74 0 -74 78v1241h125v-1203h21v1203h125v-1307h-125v25zM158 1327l-11 27h-4l-10 -27h-113l37 107h176l37 -107h-112z" glyph-name="ucircumflex" unicode="û"/><glyph d="M156 25h-6q-23 -37 -66 -37q-74 0 -74 78v1241h125v-1203h21v1203h125v-1307h-125v25zM12 1327v107h123v-107h-123zM156 1327v107h123v-107h-123z" glyph-name="udieresis" unicode="ü"/><glyph d="M86 -127h-66v104h43l-53 1330h125l12 -1235h9l12 1235h125l-49 -1299q-2 -78 -38 -106.5t-120 -28.5zM94 1327l41 107h133l-59 -107h-115z" glyph-name="yacute" horiz-adv-x="303" unicode="ý"/><glyph d="M135 -127h-125v1561h125v-154h4q4 12 21.5 24.5t36.5 12.5q84 0 84 -86v-1157q0 -84 -84 -84q-18 0 -36 11t-22 24h-4v-152zM135 1202v-1096h21v1096h-21z" glyph-name="thorn" unicode="þ"/><glyph d="M86 -127h-66v104h43l-53 1330h125l12 -1235h9l12 1235h125l-49 -1299q-2 -78 -38 -106.5t-120 -28.5zM18 1327v107h123v-107h-123zM162 1327v107h123v-107h-123z" glyph-name="ydieresis" horiz-adv-x="303" unicode="ÿ"/><glyph d="M154 1327v107h125v-107h-125zM133 -127v104h21v1330h125v-1299q0 -76 -30 -105.5t-106 -29.5h-10zM8 0v1307h123v-1307h-123zM8 1327v107h123v-107h-123z" glyph-name="ij" horiz-adv-x="288" unicode="ĳ"/><glyph d="M135 1434v-1330h31v-104h-156v1434h125z" glyph-name="Ldot" horiz-adv-x="176" unicode="Ŀ"/><glyph d="M10 1434h123v-1434h-123v1434z" glyph-name="ldot" horiz-adv-x="143" unicode="ŀ"/><glyph d="M348 664h-63v-560h61v-104h-145q-25 -12 -51 -12q-139 0 -140 135v1186q0 133 140 133q29 0 51 -8h145v-107h-61v-559h63v-104zM137 104h23v1223h-23v-1223z" glyph-name="OE" horiz-adv-x="358" unicode="Œ"/><glyph d="M281 596v-490h22v469h125v-450q0 -135 -135 -135q-41 0 -74 20q-33 -20 -74 -20q-135 0 -135 135v1055q0 137 135 137q43 0 74 -23q31 23 74 23q135 0 135 -137v-584h-147zM158 106v1094h-23v-1094h23zM303 1200h-22v-508h22v508z" glyph-name="oe" horiz-adv-x="438" unicode="œ"/><glyph d="M215 0h-123v440l-82 994h123l17 -813h8l16 813h123l-82 -994v-440zM166 1454l-10 27h-4l-11 -27h-112l37 107h176l37 -107h-113z" glyph-name="Ycircumflex" horiz-adv-x="307" unicode="Ŷ"/><glyph d="M86 -127h-66v104h43l-53 1330h125l12 -1235h9l12 1235h125l-49 -1299q-2 -78 -38 -106.5t-120 -28.5zM164 1327l-10 27h-4l-11 -27h-112l36 107h177l36 -107h-112z" glyph-name="ycircumflex" horiz-adv-x="303" unicode="ŷ"/><glyph d="M215 0h-123v440l-82 994h123l17 -813h8l16 813h123l-82 -994v-440zM20 1454v107h123v-107h-123zM164 1454v107h123v-107h-123z" glyph-name="Ydieresis" horiz-adv-x="307" unicode="Ÿ"/><glyph d="M147 1327l-10 27h-4l-10 -27h-113l37 107h176l37 -107h-113z" glyph-name="circumflex" horiz-adv-x="270" unicode="ˆ"/><glyph d="M256 1434h205l-103 -205h-245l-103 205h205l16 -58h9z" glyph-name="caron" horiz-adv-x="471" unicode="ˇ"/><glyph d="M281 1434h139q0 -86 -59.5 -145.5t-144.5 -59.5t-145.5 60.5t-60.5 144.5h137q0 -27 19.5 -46.5t47.5 -19.5t47.5 18.5t19.5 47.5z" glyph-name="breve" horiz-adv-x="430" unicode="˘"/><glyph glyph-name="dotaccent" horiz-adv-x="1228" unicode="˙"/><glyph d="M76 1327q-64 0 -66 55q0 62 65 62t64 -62q1 -55 -63 -55z" glyph-name="ring" horiz-adv-x="149" unicode="˚"/><glyph glyph-name="ogonek" horiz-adv-x="266" unicode="˛"/><glyph d="M10 1341q0 103 66 103q32 0 69 -12.5t44 -12.5t10.5 2t3.5 13h78q0 -55 -21.5 -80t-54.5 -25t-66 13.5t-39 13.5q-12 0 -12 -15h-78z" glyph-name="tilde" unicode="˜"/><glyph d="M10 1270l41 164h197l-41 -164h-197zM240 1270l41 164h196l-41 -164h-196z" glyph-name="hungarumlaut" horiz-adv-x="487" unicode="˝"/><glyph d="M215 0h-123v440l-82 994h123l17 -813h8l16 813h123l-82 -994v-440zM215 1454h-115l-59 107h133z" glyph-name="Ygrave" horiz-adv-x="307" unicode="Ỳ"/><glyph d="M86 -127h-66v104h43l-53 1330h125l12 -1235h9l12 1235h125l-49 -1299q-2 -78 -38 -106.5t-120 -28.5zM211 1327h-115l-59 107h133z" glyph-name="ygrave" horiz-adv-x="303" unicode="ỳ"/><glyph d="M281 602h-271v105h271v-105z" glyph-name="endash" unicode="–"/><glyph d="M428 602h-418v105h418v-105z" glyph-name="emdash" horiz-adv-x="438" unicode="—"/><glyph d="M135 1434v-643h-92l-33 643h125z" glyph-name="quoteleft" horiz-adv-x="145" unicode="‘"/><glyph d="M10 791v643h125l-33 -643h-92z" glyph-name="quoteright" horiz-adv-x="145" unicode="’"/><glyph d="M-23 0v643h125l-32 -643h-93z" glyph-name="quotesinglbase" horiz-adv-x="145" unicode="‚"/><glyph d="M281 1434v-643h-93l-32 643h125zM10 1434h125l31 -643h-94z" glyph-name="quotedblleft" unicode="“"/><glyph d="M10 791v643h125l-33 -643h-92zM125 791l31 643h125l-62 -643h-94z" glyph-name="quotedblright" unicode="”"/><glyph d="M10 0v643h125l-33 -643h-92zM10 0h92l33 643h-125v-643z" glyph-name="quotedblbase" horiz-adv-x="176" unicode="„"/><glyph d="M299 1276h158v-131h-158v-1145h-131v1145h-158v131h158v158h131v-158z" glyph-name="dagger" horiz-adv-x="466" unicode="†"/><glyph d="M582 1145h-158v-856h158v-131h-158v-158h-131v158h-158v131h158v856h-158v131h158v158h131v-158h158v-131z" glyph-name="daggerdbl" horiz-adv-x="716" unicode="‡"/><glyph d="M10 553v319h123v-319h-123z" glyph-name="bullet" horiz-adv-x="143" unicode="•"/><glyph d="M10 0v319h123v-319h-123zM154 0v319h122v-319h-122zM297 0v319h123v-319h-123z" glyph-name="ellipsis" horiz-adv-x="430" unicode="…"/><glyph d="M10 1307q0 137 136 137t137 -137v-473q0 -137 -136 -138q-137 0 -137 138v473zM156 813v516h-21v-516h21zM532 1444h23l-520 -1454h-25zM283 604q0 133 136 133t136 -133v-481q0 -133 -136 -133t-136 133v481zM430 104v519h-20v-519h20zM712 737q136 0 136 -133v-481 q0 -133 -136 -133t-137 133v481q1 133 137 133zM723 104v519h-21v-519h21z" glyph-name="perthousand" horiz-adv-x="858" unicode="‰"/><glyph d="M176 246l-166 471l166 471h21l-166 -471l166 -471h-21z" glyph-name="guilsinglleft" horiz-adv-x="206" unicode="‹"/><glyph d="M31 1188l166 -471l-166 -471h-21l166 471l-166 471h21z" glyph-name="guilsinglright" horiz-adv-x="206" unicode="›"/><glyph d="M184 1434h21l-185 -1434h-20z" glyph-name="fraction" horiz-adv-x="204" unicode="⁄"/><glyph d="M367 768h-127v551h-21v-571h84v-21h-84v-20h84v-21h-84v-569h21v547h127v-539q0 -135 -137.5 -135t-137.5 135v561h-82v21h82v20h-82v21h82v561q0 135 137.5 135t137.5 -135v-541z" glyph-name="Euro" horiz-adv-x="376" unicode="€"/><glyph d="M10 1434h170v-78h-39v-639h-92v639h-39v78zM614 1434v-717h-92v645h-8l-18 -645h-170l-17 645h-8v-645h-94v717h192l9 -646h8l8 646h190z" glyph-name="trademark" horiz-adv-x="624" unicode="™"/><glyph d="M166 106h33v-106h-189v106h33v1221h-33v107h156v-1328zM393 1434h21l-185 -1434h-20zM569 793v536h-20v-536h20zM549 686v-580h20l2 580h-22zM424 860v447q0 72 31.5 104.5t103.5 32.5t103.5 -33t31.5 -104v-447q0 -113 -80 -119v-4q80 -12 80 -123v-495 q0 -129 -135 -129t-135 129v495q0 111 80 123v4q-80 6 -80 119z" glyph-name="oneeighth" horiz-adv-x="704" unicode="⅛"/><glyph d="M281 1311v-461q0 -123 -80 -131v-4q80 -8 80 -121v-469q0 -135 -135.5 -135t-135.5 135v520h125v-541h21v562h-41v104h41v559h-21v-538h-125v520q0 70 33 101.5t102.5 31.5t102.5 -31.5t33 -101.5zM475 1434h21l-185 -1434h-20zM651 793v536h-20v-536h20zM631 686v-580 h20l2 580h-22zM506 860v447q0 72 31.5 104.5t103.5 32.5t103.5 -33t31.5 -104v-447q0 -113 -80 -119v-4q80 -12 80 -123v-495q0 -129 -135 -129t-135 129v495q0 111 80 123v4q-80 6 -80 119z" glyph-name="threeeighths" horiz-adv-x="786" unicode="⅜"/><glyph d="M135 1327v-459h4q18 25 58 25q84 0 84 -84v-684q0 -135 -135.5 -135t-135.5 135v588h125v-607h21v672h-21v-43h-125v699h271v-107h-146zM475 1434h21l-185 -1434h-20zM651 793v536h-20v-536h20zM631 686v-580h20l2 580h-22zM506 860v447q0 72 31.5 104.5t103.5 32.5 t103.5 -33t31.5 -104v-447q0 -113 -80 -119v-4q80 -12 80 -123v-495q0 -129 -135 -129t-135 129v495q0 111 80 123v4q-80 6 -80 119z" glyph-name="fiveeighths" horiz-adv-x="786" unicode="⅝"/><glyph d="M10 1327v107h168v-107l-41 -1327h-127l41 1327h-41zM373 1434h20l-184 -1434h-21zM549 793v536h-21v-536h21zM528 686v-580h21l2 580h-23zM403 860v447q0 72 32 104.5t103.5 32.5t103.5 -33t32 -104v-447q0 -113 -80 -119v-4q80 -12 80 -123v-495q0 -129 -135.5 -129 t-135.5 129v495q0 111 80 123v4q-80 6 -80 119z" glyph-name="seveneighths" horiz-adv-x="684" unicode="⅞"/><glyph d="M156 109v1093h-21v-1093h21zM182 1434q0 -2 49.5 -67.5t49.5 -276.5v-961q0 -137 -135.5 -137t-135.5 137v1112q0 76 74 76q43 0 66 -35h6q-19 66 -95 152h121z" glyph-name="partialdiff" unicode="∂"/><glyph d="M759 -16q-376 0 -554 179t-178 556t178 556t555 179t556 -179t179 -556t-180 -556t-556 -179zM760 16q360 0 531 171t171 531.5t-171 531.5t-531 171t-530.5 -171t-170.5 -531.5t170.5 -531.5t530.5 -171zM10 0l1454 1434h47l-1454 -1434h-47z" glyph-name="emptyset" horiz-adv-x="1521" unicode="∅"/><glyph d="M367 1434v-107h-43v-1327h-125v1327h-21v-1327h-125v1327h-43v107h357z" glyph-name="product" horiz-adv-x="376" unicode="∏"/><glyph d="M10 1434h389v-131h-241l125 -650l-125 -649h241v-131h-389v119l129 661l-129 662v119z" glyph-name="summation" horiz-adv-x="409" unicode="∑"/><glyph d="M403 780v-131h-393v131h393z" glyph-name="minus" horiz-adv-x="413" unicode="−"/><glyph d="M-133 666v20h274l95 -815h6l180 1817h18l-190 -1924h-23l-106 902h-254z" glyph-name="radical" horiz-adv-x="460" unicode="√"/><glyph d="M707 473q-102 0 -230 123q-127 -123 -233 -123t-170 64.5t-64 161.5t67.5 165t171.5 68t230 -123q119 123 242 123q96 0 159.5 -64t63.5 -162t-67.5 -165.5t-169.5 -67.5zM788 704q0 78 -82 78q-44 0 -126 -77q80 -80 122 -80t64 22.5t22 56.5zM242 625q57 0 133 75 q-78 82 -122 82t-65.5 -22.5t-21.5 -57.5q0 -77 76 -77z" glyph-name="infinity" horiz-adv-x="954" unicode="∞"/><glyph d="M24 -170q-168 0 -139 170l123 625h156l-127 -650h26l127 656l5 18h-183l27 131h182l96 496q31 170 201 170t139 -170l-88 -469h-159l96 493h-25l-100 -520h184l-26 -131h-185l-131 -659q-31 -160 -199 -160z" glyph-name="integral" horiz-adv-x="546" unicode="∫"/><glyph d="M10 729q0 129 84 129q40 0 85.5 -16.5t53.5 -16.5q18 0 19 21h98v-2q0 -70 -27.5 -99.5t-68.5 -29.5t-82 16.5t-49 16.5q-14 0 -14 -21h-99v2zM10 573q0 129 84 129q40 0 85.5 -16t53.5 -16q18 0 19 20h98v-2q0 -70 -27.5 -99.5t-68.5 -29.5t-82 16.5t-49 16.5 q-14 0 -14 -21h-99v2z" glyph-name="approxequal" horiz-adv-x="360" unicode="≈"/><glyph d="M659 727h-393v104h393v-104zM659 602h-393v105h393v-105zM195 1434h20l-184 -1434h-21z" glyph-name="notequal" horiz-adv-x="768" unicode="≠"/><glyph d="M502 842l-400 -39v-6l400 -37v-131l-492 49v246l492 49v-131zM10 465v131h492v-131h-492z" glyph-name="lessequal" horiz-adv-x="512" unicode="≤"/><glyph d="M10 973l492 -49v-246l-492 -49v131l400 37v6l-400 39v131zM10 465v131h492v-131h-492z" glyph-name="greaterequal" horiz-adv-x="512" unicode="≥"/><glyph d="M272 -158l-262 793l264 799h134l266 -799l-266 -793h-136zM342 1223l188 -586l-192 -588l-188 584zM272 -158h136l266 793l-266 799h-134l-264 -799zM342 1223l-192 -590l188 -584l192 588z" glyph-name="lozenge" horiz-adv-x="684" unicode="◊"/><glyph d="M178 1434h131v-107h-143v-1327h-123v1202h-33v105h33q5 127 135 127zM186 0v1307h123v-1307h-123z" glyph-name="uniFB01" horiz-adv-x="319" unicode="ﬁ"/><glyph d="M178 1434h131v-1434h-123v1327h-20v-1327h-123v1202h-33v105h33q0 127 135 127z" glyph-name="uniFB02" horiz-adv-x="319" unicode="ﬂ"/><glyph d="M10 125v1186q0 70 33 101.5t102.5 31.5t102.5 -32t33 -101v-1186q0 -135 -135.5 -135t-135.5 135zM162 106v1223h-33v-1223h33z" glyph-name="zero.aalt.aalt"/><glyph d="M166 106h33v-106h-189v106h33v1221h-33v107h156v-1328z" glyph-name="one.aalt.aalt" horiz-adv-x="208"/><glyph d="M135 104h146v-104h-271v68q0 164 73 388t73 310v563h-21v-575h-125v553q0 72 32 104.5t103.5 32.5t103.5 -33t32 -104v-514q0 -119 -73 -346.5t-73 -342.5z" glyph-name="two.aalt.aalt"/><glyph d="M281 1311v-461q0 -123 -80 -131v-4q80 -8 80 -121v-469q0 -135 -135.5 -135t-135.5 135v520h125v-541h21v562h-41v104h41v559h-21v-538h-125v520q0 70 33 101.5t102.5 31.5t102.5 -31.5t33 -101.5z" glyph-name="three.aalt.aalt"/><glyph d="M313 391v-104h-30v-287h-125v287h-148v104l74 1043h199v-1043h30zM158 391v936h-8l-25 -936h33z" glyph-name="four.aalt.aalt" horiz-adv-x="323"/><glyph d="M135 1327v-459h4q18 25 58 25q84 0 84 -84v-684q0 -135 -135.5 -135t-135.5 135v588h125v-607h21v672h-21v-43h-125v699h271v-107h-146z" glyph-name="five.aalt.aalt"/><glyph d="M281 950h-125v379h-21v-416h4q18 25 58 25q84 0 84 -84v-729q0 -135 -135.5 -135t-135.5 135v1184q0 135 135.5 135t135.5 -135v-359zM156 831h-21v-727h21v727z" glyph-name="six.aalt.aalt"/><glyph d="M10 1327v107h168v-107l-41 -1327h-127l41 1327h-41z" glyph-name="seven.aalt.aalt" horiz-adv-x="188"/><glyph d="M156 793v536h-21v-536h21zM135 686v-580h21l2 580h-23zM10 860v447q0 72 32 104.5t103.5 32.5t103.5 -33t32 -104v-447q0 -113 -80 -119v-4q80 -12 80 -123v-495q0 -129 -135.5 -129t-135.5 129v495q0 111 80 123v4q-80 6 -80 119z" glyph-name="eight.aalt.aalt"/><glyph d="M10 483h125v-379h21v416h-4q-18 -25 -58 -24q-84 0 -84 84v729q0 135 135.5 135t135.5 -135v-1184q0 -135 -135.5 -135t-135.5 135v358zM135 602h21v725h-21v-725z" glyph-name="nine.aalt.aalt"/><glyph d="M10 328v1185q0 70 33 102t102.5 32t102.5 -32t33 -102v-1185q0 -135 -135.5 -135t-135.5 135zM162 309v1223h-33v-1223h33z" glyph-name="zero.aalt"/><glyph d="M166 311h33v-106h-189v106h33v1221h-33v106h156v-1327z" glyph-name="one.aalt" horiz-adv-x="208"/><glyph d="M135 309h146v-104h-271v67q0 164 73 388.5t73 310.5v563h-21v-576h-125v553q0 72 32 105t103.5 33t103.5 -33t32 -105v-514q0 -119 -73 -346t-73 -342z" glyph-name="two.aalt"/><glyph d="M281 1516v-461q0 -123 -80 -131v-4q80 -8 80 -121v-469q0 -135 -135.5 -135t-135.5 135v520h125v-541h21v561h-41v105h41v559h-21v-539h-125v521q0 70 33 101.5t102.5 31.5t102.5 -31.5t33 -101.5z" glyph-name="three.aalt"/><glyph d="M313 596v-104h-30v-287h-125v287h-148v104l74 1042h199v-1042h30zM158 596v936h-8l-25 -936h33z" glyph-name="four.aalt" horiz-adv-x="323"/><glyph d="M135 1532v-459h4q18 25 58 25q84 0 84 -84v-684q0 -135 -135.5 -135t-135.5 135v588h125v-607h21v672h-21v-43h-125v698h271v-106h-146z" glyph-name="five.aalt"/><glyph d="M281 1155h-125v379h-21v-416h4q18 25 58 25q84 0 84 -84v-729q0 -135 -135.5 -135t-135.5 135v1183q0 135 135.5 135.5t135.5 -135.5v-358zM156 1036h-21v-727h21v727z" glyph-name="six.aalt"/><glyph d="M10 1532v106h168v-106l-41 -1327h-127l41 1327h-41z" glyph-name="seven.aalt" horiz-adv-x="188"/><glyph d="M156 997v537h-21v-537h21zM135 891v-580h21l2 580h-23zM10 1065v446q0 72 32 105t103.5 33t103.5 -33t32 -105v-446q0 -113 -80 -119v-4q80 -12 80 -123v-495q0 -129 -135.5 -129t-135.5 129v495q0 111 80 123v4q-80 6 -80 119z" glyph-name="eight.aalt"/><glyph d="M10 688h125v-379h21v416h-4q-18 -25 -58 -25q-84 0 -84 84v729q0 135 135.5 135.5t135.5 -135.5v-1183q0 -135 -135.5 -135t-135.5 135v358zM135 807h21v725h-21v-725z" glyph-name="nine.aalt"/><glyph glyph-name="glyph261" horiz-adv-x="1228"/><glyph glyph-name="glyph262" horiz-adv-x="1228"/><glyph glyph-name="glyph263" horiz-adv-x="1228"/><glyph glyph-name="glyph264" horiz-adv-x="1228"/><glyph glyph-name="glyph265" horiz-adv-x="1228"/><glyph glyph-name="glyph266" horiz-adv-x="1228"/></font>
</defs>
</svg>
