<svg width="390" height="55" viewBox="0 0 390 55" fill="none" xmlns="http://www.w3.org/2000/svg">
<path d="M71.1436 52.5974V13.5956H78.0391L94.8548 39.957L95.9051 42.5237L95.6815 39.7351V13.586H102.519V52.5877H95.8468L78.8074 25.8982L77.7084 23.3316L77.9807 26.0623V52.5877H71.1436V52.5974Z" fill="#19194A"/>
<path fill-rule="evenodd" clip-rule="evenodd" d="M108.082 44.9939C108.082 50.1369 111.554 53.4176 118.449 53.4176C125.014 53.4176 129.264 50.407 131.413 46.3158L132.182 52.607H138.027V31.379C138.027 26.8342 136.374 23.4956 132.24 21.7491C130.139 20.8132 127.494 20.379 124.022 20.379C114.919 20.379 109.628 25.0781 109.132 32.2474H116.572C116.796 28.1948 119.159 25.9562 124.401 25.9562C129.361 25.9562 131.073 27.5965 131.073 30.2211C131.073 32.7974 128.817 33.5597 123.137 34.2737C119.159 34.8816 116.796 35.3158 114.919 35.9719C114.034 36.2421 113.1 36.686 112.215 37.2842C109.628 38.8667 108.082 41.4912 108.082 44.9939ZM131.131 38.3746C131.131 41.3851 129.42 44.5597 126.337 46.4702C124.79 47.3965 123.03 47.8886 120.919 47.8886C117.613 47.8886 115.959 46.5763 115.959 43.9518C115.959 42.5816 116.572 41.4912 117.836 40.6711C119.334 39.7448 120.871 39.3009 124.732 38.7027C127.601 38.2588 129.809 37.6026 131.131 36.6763V38.3746Z" fill="#19194A"/>
<path d="M144.699 52.5974V21.1412H150.816L151.478 27.4325C153.189 23.1097 156.768 20.379 162.234 20.379C169.898 20.379 173.973 25.4158 173.973 33.2316V52.5974H166.698V34.9781C166.698 29.8351 165.045 26.6123 159.861 26.6123C154.454 26.6123 151.974 30.3369 151.974 36.1842V52.5974H144.699Z" fill="#19194A"/>
<path fill-rule="evenodd" clip-rule="evenodd" d="M179.274 36.6763V37.4965C179.274 47.7825 185.002 53.4176 195.263 53.4176C201.711 53.4176 206.516 50.8991 209.268 46.1421C210.591 43.7877 211.252 40.9412 211.252 37.4965V36.6763C211.252 29.729 208.383 24.8562 203.53 22.2895C201.166 20.9772 198.463 20.379 195.263 20.379C189.029 20.379 184.117 22.9456 181.365 27.7605C179.994 30.1632 179.274 33.1737 179.274 36.6763ZM203.919 36.6763V37.3904C203.919 43.6237 200.719 47.1263 195.263 47.1263C189.865 47.1263 186.665 43.6237 186.665 37.3904V36.6763C186.665 30.0088 190.138 26.5062 195.321 26.5062C200.554 26.5062 203.919 30.2211 203.919 36.6763Z" fill="#19194A"/>
<path d="M240.857 48.4386C238.873 51.4491 235.566 53.4176 230.547 53.4176C220.958 53.4176 215.716 47.7825 215.716 35.2579V31.4851C215.716 19.0088 222.222 12.8912 232.921 12.8912C242.734 12.8912 248.248 18.0921 248.686 27.114H241.129C241.071 25.6377 240.74 24.4316 240.137 23.1772C239.038 20.8228 236.879 19.2983 232.804 19.2983C226.132 19.2983 223.098 23.3509 223.098 31.7746V34.9974C223.039 43.4211 226.074 46.9719 232.58 46.9719C234.681 46.9719 236.276 46.586 237.54 45.7658C240.079 44.1833 241.178 41.3369 241.236 38.3263H231.646V32.1316H248.851V52.5877H243.395L242.841 43.3439C242.461 45.1579 241.79 46.9044 240.857 48.4386Z" fill="#19194A"/>
<path fill-rule="evenodd" clip-rule="evenodd" d="M259.277 8.27896C256.077 8.27896 254.482 9.4851 254.482 12.9877C254.482 16.5965 255.805 17.7448 259.277 17.7448C262.526 17.7448 264.072 16.3746 264.072 12.9877C264.072 9.4851 262.477 8.27896 259.277 8.27896ZM262.856 21.1412H255.523V52.5974H262.856V21.1412Z" fill="#19194A"/>
<path fill-rule="evenodd" clip-rule="evenodd" d="M267.982 44.9939C267.982 50.1369 271.454 53.4176 278.349 53.4176C284.914 53.4176 289.155 50.407 291.314 46.3158L292.082 52.607H297.927V31.379C297.927 26.8342 296.274 23.4956 292.141 21.7491C290.04 20.8132 287.394 20.379 283.922 20.379C274.819 20.379 269.528 25.0781 269.032 32.2474H276.472C276.696 28.1948 279.059 25.9562 284.302 25.9562C289.262 25.9562 290.973 27.5965 290.973 30.2211C290.973 32.7974 288.717 33.5597 283.037 34.2737C279.059 34.8816 276.696 35.3158 274.819 35.9719C273.934 36.2421 273 36.686 272.115 37.2842C269.528 38.8667 267.982 41.4912 267.982 44.9939ZM291.032 38.3746C291.032 41.3851 289.33 44.5597 286.237 46.4702C284.691 47.3965 282.93 47.8886 280.83 47.8886C277.523 47.8886 275.869 46.5763 275.869 43.9518C275.869 42.5816 276.482 41.4912 277.747 40.6711C279.235 39.7448 280.771 39.3009 284.632 38.7027C287.501 38.2588 289.709 37.6026 291.032 36.6763V38.3746Z" fill="#19194A"/>
<path d="M304.599 52.5974V21.1412H310.717L311.378 27.4325C313.09 23.1097 316.669 20.379 322.125 20.379C329.789 20.379 333.864 25.4158 333.864 33.2316V52.5974H326.589V34.9781C326.589 29.8351 324.936 26.6123 319.752 26.6123C314.354 26.6123 311.864 30.3369 311.864 36.1842V52.5974H304.599Z" fill="#19194A"/>
<path d="M353.723 52.5974C350.747 52.5974 348.433 52.1632 346.886 51.4491C343.686 49.8667 342.694 46.4123 342.694 40.0149V27.4807H336.519V21.4114H339.329C340.38 21.4114 341.09 21.3053 341.595 21.0834C342.646 20.5912 342.976 19.3851 343.142 16.8184C343.2 15.4483 343.249 13.5956 343.249 12.6597H349.425V21.1412H357.808V27.4904H349.425V38.8088C349.425 40.8834 349.59 42.4176 349.862 43.4597C350.358 45.5342 352.012 45.9202 355.542 45.9202H357.798V52.5974H353.723Z" fill="#19194A"/>
<path d="M360.347 42.1956H368.176C368.837 45.9202 371.424 47.3965 375.947 47.3965C380.576 47.3965 382.395 45.8623 382.395 43.3439C382.395 42.4176 382.006 41.6456 381.179 41.1535C379.584 40.2272 376.822 39.8413 373.788 39.407C370.919 38.9728 368.001 38.4807 365.628 37.2167C363.255 35.9527 361.767 33.8299 361.767 30.3272C361.767 24.5281 366.124 20.3693 374.838 20.3693C383.931 20.3693 388.065 24.2483 388.95 30.5395H381.558C381.062 27.4807 378.971 26.1106 374.78 26.1106C370.257 26.1106 368.876 27.693 368.876 29.8834C368.876 30.8097 369.265 31.5816 370.092 32.0737C371.687 33 374.507 33.386 377.532 33.8202C380.401 34.2544 383.319 34.7465 385.692 36.0106C388.065 37.2649 389.553 39.3974 389.553 42.9C389.553 48.9693 385.137 53.3983 375.772 53.3983C366.026 53.4176 361.28 49.529 360.347 42.1956Z" fill="#19194A"/>
<path d="M10.9122 0V15.8921H35.5766C35.4307 23.6307 32.6005 30.9351 26.0843 35.0167C22.8262 37.1298 18.7122 38.114 13.3242 38.114C7.98479 38.114 3.54988 37.1781 0 35.2V54.1123C2.54813 54.4982 5.23242 54.7009 8.08205 54.7009C20.9783 54.7009 29.4883 49.6351 34.5845 41.9061C36.9965 37.9693 38.6985 33.4728 39.6905 28.8316L41.1105 52.5974H55.1446V0H10.9122Z" fill="#19194A"/>
</svg>
