<?xml version="1.0" standalone="no"?>
<!DOCTYPE svg PUBLIC "-//W3C//DTD SVG 1.1//EN" "http://www.w3.org/Graphics/SVG/1.1/DTD/svg11.dtd">
<svg xmlns="http://www.w3.org/2000/svg"><metadata>This SVG WebFont was generated by YouWorkForThem.
Copyright © 2015 Stefan Kjartansson. All rights reserved.</metadata><defs><font horiz-adv-x="233" id="ywftsvg"><font-face ascent="1638" bbox="-133 -236 1518 1913" cap-height="1434" descent="-410" font-family="" font-stretch="normal" font-weight="400" panose-1="0 0 5 0 0 0 0 0 0 0" underline-position="0" underline-thickness="0" unicode-range="U+0020-FB02" units-per-em="2048" x-height="1331"/><missing-glyph horiz-adv-x="512"/><glyph glyph-name=".notdef" horiz-adv-x="512"/><glyph glyph-name="glyph1" horiz-adv-x="0"/><glyph glyph-name="glyph2" horiz-adv-x="681"/><glyph glyph-name="space" horiz-adv-x="49" unicode=" "/><glyph d="M106 1434v-1266h-98v1266h98zM8 0v152h98v-152h-98z" glyph-name="exclam" horiz-adv-x="114" unicode="!"/><glyph d="M8 768v666h101v-666h-101zM125 768v666h100v-666h-100z" glyph-name="quotedbl" unicode="&quot;"/><glyph d="M903 901h-262l-68 -350h263v-16h-265l-104 -535h-16l104 535h-258l-104 -535h-17l105 535h-273v16h275l67 350h-274v17h278l101 516h16l-100 -516h258l100 516h16l-100 -516h258v-17zM557 551l68 350h-258l-68 -350h258z" glyph-name="numbersign" horiz-adv-x="911" unicode="#"/><glyph d="M225 840h-100v512h-16v-500q0 -23 58 -75t58 -130v-545q0 -109 -100 -110v-94h-16v94q-100 2 -101 110v572h101v-590h16v575q0 32 -58.5 76.5t-58.5 118.5v477q0 109 101 111v94h16v-94q100 -2 100 -111v-491z" glyph-name="dollar" unicode="$"/><glyph d="M124.5 1442q108.5 0 108.5 -111v-520q0 -111 -108.5 -111t-108.5 111v520q0 111 108.5 111zM131 795v555h-16v-555h16zM442 1434h17l-432 -1434h-19zM342 733q109 0 109 -106v-529q0 -106 -109 -106t-109 106v529q0 106 109 106zM352 84v557h-16v-557h16z" glyph-name="percent" horiz-adv-x="466" unicode="%"/><glyph d="M109 760h141v-86h-25v-576q0 -106 -108.5 -106t-108.5 106v518q0 92 64 99v4q-63 2 -64 102v512q0 109 108.5 109t108.5 -109v-557h-100v574h-16v-590zM125 84v590h-16v-590h16z" glyph-name="ampersand" horiz-adv-x="258" unicode="&amp;"/><glyph d="M8 768v666h101l-27 -666h-74z" glyph-name="quotesingle" horiz-adv-x="114" unicode="'"/><glyph d="M8 717q0 393 76 717h16q-76 -324 -76 -717t76 -717h-16q-76 324 -76 717z" glyph-name="parenleft" horiz-adv-x="108" unicode="("/><glyph d="M125 717q0 393 -76 717h17q76 -324 76 -717t-76 -717h-17q76 324 76 717z" glyph-name="parenright" horiz-adv-x="149" unicode=")"/><glyph d="M336 774h-25v307l-266 -151l-12 18l266 156l-266 156l12 18l266 -152v308h25v-308l266 152l12 -18l-266 -156l266 -156l-12 -18l-266 151v-307z" glyph-name="asterisk" horiz-adv-x="647" unicode="*"/><glyph d="M262 758v-84h-86v-84h-84v84h-84v84h84v84h84v-84h86z" glyph-name="plus" horiz-adv-x="270" unicode="+"/><glyph d="M8 0v666h101l-27 -666h-74z" glyph-name="comma" horiz-adv-x="114" unicode=","/><glyph d="M131 625h-123v84h123v-84z" glyph-name="hyphen" horiz-adv-x="139" unicode="-"/><glyph d="M8 0v152h98v-152h-98z" glyph-name="period" horiz-adv-x="114" unicode="."/><glyph d="M143 1434h17l-144 -1434h-16z" glyph-name="slash" horiz-adv-x="159" unicode="/"/><glyph d="M8 100v1235q0 106 108.5 106.5t108.5 -106.5v-1235q0 -106 -108.5 -106t-108.5 106zM129 86v1264h-25v-1264h25z" glyph-name="zero" unicode="0"/><glyph d="M133 86h27v-86h-152v86h27v1262h-27v86h125v-1348z" glyph-name="one" horiz-adv-x="167" unicode="1"/><glyph d="M109 84h116v-84h-217v53q0 174 58.5 384t58.5 319v594h-16v-605h-101v586q0 57 25.5 84t83 27t83 -26.5t25.5 -84.5v-553q0 -135 -58 -348t-58 -346z" glyph-name="two" unicode="2"/><glyph d="M225 1335v-512q0 -98 -63 -104v-4q63 -6 63 -97v-518q0 -109 -108.5 -108.5t-108.5 108.5v559h101v-575h16v592h-33v84h33v590h-16v-574h-101v559q0 106 108.5 106t108.5 -106z" glyph-name="three" unicode="3"/><glyph d="M250 371v-84h-25v-287h-100v287h-117v84l60 1063h157v-1063h25zM125 371v977h-6l-19 -977h25z" glyph-name="four" horiz-adv-x="258" unicode="4"/><glyph d="M109 1348v-510h4q12 20 45 20q68 0 67 -67v-691q0 -109 -108.5 -108.5t-108.5 108.5v613h101v-627h16v680h-16v-35h-101v703h217v-86h-116z" glyph-name="five" unicode="5"/><glyph d="M225 944h-100v406h-16v-435h4q12 18 45 19q68 0 67 -66v-768q0 -109 -108.5 -108.5t-108.5 108.5v1233q0 109 108.5 109t108.5 -109v-389zM125 850h-16v-764h16v764z" glyph-name="six" unicode="6"/><glyph d="M8 1348v86h135v-86l-32 -1348h-103l33 1348h-33z" glyph-name="seven" horiz-adv-x="151" unicode="7"/><glyph d="M125 778v572h-16v-572h16zM109 692v-606h16l2 606h-18zM8 831v500q0 57 25.5 84t83 27t83 -26.5t25.5 -84.5v-500q0 -90 -63 -94v-4q63 -10 63 -98v-541q0 -102 -108.5 -102t-108.5 102v541q0 90 64 98v4q-64 2 -64 94z" glyph-name="eight" unicode="8"/><glyph d="M8 489h101v-405h16v434h-4q-12 -18 -45 -18q-68 0 -68 65v768q0 109 108.5 109t108.5 -109v-1233q0 -109 -108.5 -108.5t-108.5 108.5v389zM109 584h16v764h-16v-764z" glyph-name="nine" unicode="9"/><glyph d="M8 0v152h98v-152h-98zM8 1182v149h98v-149h-98z" glyph-name="colon" horiz-adv-x="114" unicode=":"/><glyph d="M8 1182v149h98v-149h-98zM8 0v666h101l-27 -666h-74z" glyph-name="semicolon" horiz-adv-x="114" unicode=";"/><glyph d="M324 743l-256 -26v-4l256 -23v-84l-316 31v158l316 30v-82z" glyph-name="less" horiz-adv-x="331" unicode="&lt;"/><glyph d="M324 725h-316v84h316v-84zM324 623h-316v84h316v-84z" glyph-name="equal" horiz-adv-x="331" unicode="="/><glyph d="M8 823l316 -30v-158l-316 -31v84l256 23v4l-256 26v82z" glyph-name="greater" horiz-adv-x="331" unicode=">"/><glyph d="M109 596v-428h-101v416q0 53 29 91t58.5 64.5t29.5 48.5v564h-16v-576h-101v555q0 57 25.5 84t83 27t83 -26.5t25.5 -84.5v-540q0 -39 -18.5 -71t-58 -62.5t-39.5 -61.5zM8 0v152h101v-152h-101z" glyph-name="question" unicode="?"/><glyph d="M61 242v895q0 133 13.5 186t53.5 86t148 33h5q108 0 158 -41t53.5 -116t3.5 -148v-1002q0 -51 -18.5 -72.5t-80.5 -21.5t-84 47h-6q-11 -47 -75 -47t-64 61v1131q0 111 108 110q113 0 113 -110v-1106q0 -31 7 -42t37 -11t38 11t8 42v1010q0 183 -31 227t-75.5 51.5 t-107.5 7.5t-103.5 -14t-59 -58t-21.5 -83t-3 -131v-895q0 -211 49.5 -250t151.5 -39v-19q-115 0 -161.5 40.5t-51.5 116t-5 151.5zM289 135v1114h-21v-1114h21z" glyph-name="at" horiz-adv-x="557" unicode="@"/><glyph d="M139 0l-2 287h-28l-3 -287h-98l21 1434h188l21 -1434h-99zM111 371h24l-10 985h-4z" glyph-name="A" horiz-adv-x="245" unicode="A"/><glyph d="M225 1335v-522q0 -86 -63 -96v-4q63 -6 63 -95v-520q0 -98 -96 -98h-121v1434h121q96 -5 96 -99zM125 760v588h-16v-588h16zM109 674v-588h16v588h-16z" glyph-name="B" unicode="B"/><glyph d="M225 725h-100v623h-16v-1262h16v623h100v-611q0 -106 -108.5 -106t-108.5 106v1237q0 106 108.5 106.5t108.5 -106.5v-610z" glyph-name="C" unicode="C"/><glyph d="M8 1434h109q57 0 82.5 -26t25.5 -83v-1219q0 -57 -25.5 -81.5t-82.5 -24.5h-109v1434zM125 82v1266h-16v-1266h16z" glyph-name="D" unicode="D"/><glyph d="M123 1348h-17v-588h17v-86h-17v-588h17v-86h-115v1434h115v-86z" glyph-name="E" horiz-adv-x="131" unicode="E"/><glyph d="M123 1348h-17v-590h17v-84h-17v-674h-98v1434h115v-86z" glyph-name="F" horiz-adv-x="131" unicode="F"/><glyph d="M225 778h-96v572h-25v-1264h25v590h-12v84h108v-660q0 -106 -108.5 -106t-108.5 106v1235q0 106 108.5 106.5t108.5 -106.5v-557z" glyph-name="G" unicode="G"/><glyph d="M125 1434h100v-1434h-100v674h-16v-674h-101v1434h101v-674h16v674z" glyph-name="H" unicode="H"/><glyph d="M8 0v1434h98v-1434h-98z" glyph-name="I" horiz-adv-x="114" unicode="I"/><glyph d="M8 86h17v1348h98v-1328q0 -106 -107 -106h-8v86z" glyph-name="J" horiz-adv-x="131" unicode="J"/><glyph d="M111 674v-674h-103v1434h103v-676h4l28 676h103l-41 -717l41 -717h-103l-28 674h-4z" glyph-name="K" horiz-adv-x="253" unicode="K"/><glyph d="M106 1434v-1348h17v-86h-115v1434h98z" glyph-name="L" horiz-adv-x="131" unicode="L"/><glyph d="M434 1434v-1434h-100v1356h-4l-21 -1356h-176l-20 1356h-4v-1356h-101v1434h201l10 -1358h4l10 1358h201z" glyph-name="M" horiz-adv-x="442" unicode="M"/><glyph d="M227 1434h101v-1434h-195l-20 1356h-4v-1356h-101v1434h195l20 -1358h4v1358z" glyph-name="N" horiz-adv-x="335" unicode="N"/><glyph d="M116.5 1442q108.5 0 108.5 -107v-1237q0 -106 -108.5 -106t-108.5 106v1237q0 107 108.5 107zM125 82v1268h-16v-1268h16z" glyph-name="O" unicode="O"/><glyph d="M8 1434h109q109 0 108 -107v-934q0 -106 -108 -106h-8v-287h-101v1434zM125 371v979h-16v-979h16z" glyph-name="P" unicode="P"/><glyph d="M225 1335v-1151q0 -49 -13 -69.5t-52 -26.5v-4h65v-84h-108q-109 0 -109 106v1229q0 106 108.5 106t108.5 -106zM125 84v1266h-16v-1266h16z" glyph-name="Q" unicode="Q"/><glyph d="M125 758v590h-16v-590h16zM225 1335v-522q0 -88 -63 -94v-6q63 -6 63 -95v-618h-100v674h-16v-674h-101v1434h121q96 -5 96 -99z" glyph-name="R" unicode="R"/><glyph d="M109 84h16v575q0 32 -58.5 76.5t-58.5 118.5v477q0 57 25.5 84t83 27t83 -26.5t25.5 -84.5v-491h-100v512h-16v-500q0 -23 58 -75t58 -130v-545q0 -111 -108.5 -110.5t-108.5 110.5v572h101v-590z" glyph-name="S" unicode="S"/><glyph d="M8 1434h131v-86h-16v-1348h-98v1348h-17v86z" glyph-name="T" horiz-adv-x="147" unicode="T"/><glyph d="M125 1434h100v-1334q0 -109 -108.5 -108.5t-108.5 108.5v1334h101v-1350h16v1350z" glyph-name="U" unicode="U"/><glyph d="M139 1434h99l-21 -1434h-188l-21 1434h98l13 -1350h8z" glyph-name="V" horiz-adv-x="245" unicode="V"/><glyph d="M406 1434l-29 -1434h-160l-8 1354h-4l-8 -1354h-158l-31 1434h96l15 -1356h4l8 1356h152l10 -1356h4l12 1356h97z" glyph-name="W" horiz-adv-x="413" unicode="W"/><glyph d="M238 1434l-29 -717l29 -717h-99l-14 674h-4l-15 -674h-98l29 717l-29 717h98l15 -676h4l14 676h99z" glyph-name="X" horiz-adv-x="245" unicode="X"/><glyph d="M172 0h-98v371l-66 1063h98l15 -797h4l14 797h99l-66 -1063v-371z" glyph-name="Y" horiz-adv-x="245" unicode="Y"/><glyph d="M8 1348v86h135v-86l-32 -1264h32v-84h-135v84l33 1264h-33z" glyph-name="Z" horiz-adv-x="151" unicode="Z"/><glyph d="M172 1417h-139v-1401h139v-16h-156v1434h156v-17z" glyph-name="bracketleft" horiz-adv-x="188" unicode="["/><glyph d="M143 0l-143 1434h16l144 -1434h-17z" glyph-name="backslash" horiz-adv-x="159" unicode="\"/><glyph d="M156 16v1401h-140v17h156v-1434h-156v16h140z" glyph-name="bracketright" horiz-adv-x="188" unicode="]"/><glyph d="M188 1137h-77l-9 235h-8l-8 -235h-78l15 297h151z" glyph-name="asciicircum" horiz-adv-x="196" unicode="^"/><glyph d="M0 -33v17h467v-17h-467z" glyph-name="underscore" horiz-adv-x="466" unicode="_"/><glyph d="M367 1581h-91l-49 86h107z" glyph-name="grave" horiz-adv-x="374" unicode="`"/><glyph d="M8 758v475q0 106 108.5 106t108.5 -106v-1233h-100v20h-4q-18 -29 -53 -28q-59 0 -60 61v637q0 59 60 60q33 0 53 -27h4v522h-16v-487h-101zM125 86v571h-16v-571h16z" glyph-name="a" unicode="a"/><glyph d="M125 1247h-16v-1163h16v1163zM225 1278v-1225q0 -61 -59 -61q-35 0 -53 28h-4v-20h-101v1434h101v-123h4q18 29 53 28q59 0 59 -61z" glyph-name="b" unicode="b"/><glyph d="M225 676h-100v573h-16v-1165h16v575h100v-561q0 -106 -108.5 -106t-108.5 106v1135q0 106 108.5 106t108.5 -106v-557z" glyph-name="c" unicode="c"/><glyph d="M125 86v1159h-16v-1159h16zM8 53v1225q0 61 60 61q35 0 53 -28h4v123h100v-1434h-100v20h-4q-18 -29 -53 -28q-60 0 -60 61z" glyph-name="d" unicode="d"/><glyph d="M109 631v-545h16v530h100v-518q0 -106 -108.5 -106t-108.5 106v1135q0 106 108.5 106t108.5 -106v-602h-116zM125 1245h-16v-538h16v538z" glyph-name="e" unicode="e"/><glyph d="M139 1348h-16v-60h16v-84h-16v-1204h-98v1204h-17v84h17v35q0 111 108 111h6v-86z" glyph-name="f" horiz-adv-x="147" unicode="f"/><glyph d="M125 1331h100v-1333q0 -109 -108.5 -109t-108.5 109v2h101v-16h16v53h-4q-18 -29 -53 -29q-59 0 -60 62v1210q0 59 60 59q35 0 53 -28h4v20zM109 127h16v1118h-16v-1118z" glyph-name="g" unicode="g"/><glyph d="M109 1311h4q18 29 53 28q59 0 59 -61v-1278h-100v1245h-16v-1245h-101v1434h101v-123z" glyph-name="h" unicode="h"/><glyph d="M8 0v1331h98v-1331h-98zM8 1348v86h98v-86h-98z" glyph-name="i" horiz-adv-x="114" unicode="i"/><glyph d="M8 1348v86h101v-86h-101zM-8 -102v84h16v1349h101v-1325q0 -59 -24 -83.5t-85 -24.5h-8z" glyph-name="j" horiz-adv-x="116" unicode="j"/><glyph d="M111 631v-631h-103v1434h103v-736h4l28 633h103l-47 -665l47 -666h-103l-28 631h-4z" glyph-name="k" horiz-adv-x="253" unicode="k"/><glyph d="M8 1434h98v-1434h-98v1434z" glyph-name="l" horiz-adv-x="114" unicode="l"/><glyph d="M344 1278v-1278h-100v1247h-19v-1247h-98v1247h-18v-1247h-101v1331h101v-20h6q16 29 54 29t54 -29h6q12 29 56 28q59 0 59 -61z" glyph-name="m" horiz-adv-x="352" unicode="m"/><glyph d="M109 1311h4q18 29 53 28q59 0 59 -61v-1278h-100v1247h-16v-1247h-101v1331h101v-20z" glyph-name="n" unicode="n"/><glyph d="M116.5 1339q108.5 0 108.5 -106v-1135q0 -106 -108.5 -106t-108.5 106v1135q0 106 108.5 106zM125 86v1159h-16v-1159h16z" glyph-name="o" unicode="o"/><glyph d="M109 1245v-1159h16v1159h-16zM225 1280v-1227q0 -61 -59 -61q-31 0 -53 28h-4v-122h-101v1433h101v-18h4q18 27 53 26q59 0 59 -59z" glyph-name="p" unicode="p"/><glyph d="M109 86h16v1159h-16v-1159zM8 53v1227q0 59 60 59q35 0 53 -26h4v18h100v-1433h-100v122h-4q-20 -29 -53 -28q-60 0 -60 61z" glyph-name="q" unicode="q"/><glyph d="M109 1313h4q20 27 53 26q59 0 59 -59v-649h-100v618h-16v-1249h-101v1331h101v-18z" glyph-name="r" unicode="r"/><glyph d="M109 86h16v500q0 28 -40 53t-58.5 53.5t-18.5 67.5v469q0 57 25.5 83.5t83 26.5t83 -26.5t25.5 -83.5v-481h-100v501h-16v-487q0 -20 29.5 -40t58 -50.5t28.5 -77.5v-492q0 -111 -108.5 -110.5t-108.5 110.5v496h101v-512z" glyph-name="s" unicode="s"/><glyph d="M139 1249h-16v-1165h16v-84h-16q-61 0 -79.5 18.5t-18.5 79.5v1151h-17v82h17v66h98v-66h16v-82z" glyph-name="t" horiz-adv-x="147" unicode="t"/><glyph d="M125 20h-4q-18 -31 -53 -30q-59 0 -60 63v1278h101v-1247h16v1247h100v-1331h-100v20z" glyph-name="u" unicode="u"/><glyph d="M131 1331h98l-22 -1331h-176l-23 1331h98l9 -1257h8z" glyph-name="v" horiz-adv-x="237" unicode="v"/><glyph d="M406 1331l-29 -1331h-160l-8 1251h-4l-8 -1251h-158l-31 1331h96l15 -1253h4l8 1253h152l10 -1253h4l12 1253h97z" glyph-name="w" horiz-adv-x="413" unicode="w"/><glyph d="M238 1331l-29 -667l29 -664h-99l-14 623h-4l-15 -623h-98l29 664l-29 667h98l15 -624h4l14 624h99z" glyph-name="x" horiz-adv-x="245" unicode="x"/><glyph d="M68 -102h-52v84h35l-43 1349h101l10 -1274h4l10 1274h100l-38 -1325q-2 -61 -30 -84.5t-97 -23.5z" glyph-name="y" horiz-adv-x="241" unicode="y"/><glyph d="M8 1245v86h135v-86l-32 -1159h32v-86h-135v86l33 1159h-33z" glyph-name="z" horiz-adv-x="151" unicode="z"/><glyph d="M12 272q0 102 51.5 213t51.5 147t-22.5 56.5t-53.5 20.5h-31v18h31q76 0 76 82q0 29 -53.5 138.5t-53.5 213.5q0 154 90 273h23q-92 -100 -92 -273q0 -104 51 -212.5t51 -138.5t-14.5 -56.5t-32.5 -28.5v-10q18 -8 32.5 -35.5t14.5 -57.5t-51 -137.5t-51 -212.5 q0 -168 92 -272h-23q-86 113 -86 272z" glyph-name="braceleft" horiz-adv-x="139" unicode="{"/><glyph d="M8 -127v1561h21v-1561h-21z" glyph-name="bar" horiz-adv-x="36" unicode="|"/><glyph d="M53 622q0 30 14.5 57.5t32.5 35.5v10q-18 2 -32.5 28.5t-14.5 56.5t51.5 138.5t51.5 212.5q0 172 -93 273h23q90 -119 90 -273q0 -104 -53 -213.5t-53 -138.5q0 -82 75 -82h31v-18h-31q-31 0 -53 -20.5t-22 -56.5t51 -146.5t51 -213.5q0 -159 -86 -272h-23q92 104 93 272 q0 104 -51.5 212t-51.5 138z" glyph-name="braceright" horiz-adv-x="184" unicode="}"/><glyph d="M8 668q0 102 68 102q30 0 67 -13.5t47 -13.5t11 17h78v-2q0 -102 -91 -103q-18 0 -51 13.5t-39 13.5q-12 0 -12 -16h-78v2z" glyph-name="asciitilde" horiz-adv-x="286" unicode="~"/><glyph d="M8 1266h98v-1266h-98v1266zM106 1282h-98v152h98v-152z" glyph-name="exclamdown" horiz-adv-x="114" unicode="¡"/><glyph d="M225 678h-100v573h-16v-1165h16v576h100v-562q0 -106 -108.5 -106t-108.5 106v1135q0 106 108.5 106t108.5 -106v-557zM125 1434h-16v-164h16v164zM125 61v-163h-16v163h16z" glyph-name="cent" unicode="¢"/><glyph d="M225 854h-100v487h-16v-460q0 -109 16 -195h100v-92h-84q29 -152 29 -289t-66 -213h121v-92h-217v92q66 88 66 176q0 129 -35 326h-31v92h17q-16 98 -17 221v424q0 111 108.5 111t108.5 -111v-477z" glyph-name="sterling" unicode="£"/><glyph glyph-name="currency" horiz-adv-x="1228" unicode="¤"/><glyph d="M223 590v-19h-53v-16h53v-16h-53v-539h-98v539h-54v16h54v16h-54v19h48l-58 844h101l8 -844h8l8 844h100l-57 -844h47z" glyph-name="yen" horiz-adv-x="241" unicode="¥"/><glyph d="M8 739v695h21v-695h-21zM8 -127v696h21v-696h-21z" glyph-name="brokenbar" horiz-adv-x="36" unicode="¦"/><glyph d="M125 717h-16v-78h16v78zM225 834h-100v516h-16v-521q0 -27 39.5 -39t58 -35.5t18.5 -60.5v-4q0 -90 -63 -96v-4q63 -6 63 -92v-500q0 -109 -108.5 -109t-108.5 109v526h101v-542h16v544q0 26 -40 40t-58.5 36.5t-18.5 59.5v4q0 88 64 96v6q-63 4 -64 90v473 q0 111 108.5 111t108.5 -111v-497z" glyph-name="section" unicode="§"/><glyph d="M8 1348v86h98v-86h-98zM123 1348v86h98v-86h-98z" glyph-name="dieresis" horiz-adv-x="229" unicode="¨"/><glyph d="M740 -16q-376 0 -554 179t-178 556t179 556t555 179t555.5 -179t179.5 -556t-180.5 -556t-556.5 -179zM740 2q368 0 544 175t176 543t-176 542t-544 174t-541.5 -174t-173.5 -542t173.5 -543t541.5 -175zM852 727h-100v430h-17v-878h17v432h100v-418 q0 -106 -108.5 -106.5t-108.5 106.5v848q0 106 108.5 106t108.5 -106v-414z" glyph-name="copyright" horiz-adv-x="1484" unicode="©"/><glyph d="M143 1434h17l-144 -1434h-16z" glyph-name="guillemotleft" horiz-adv-x="159" unicode="«"/><glyph d="M8 758h252v-172h-84v88h-168v84z" glyph-name="logicalnot" horiz-adv-x="268" unicode="¬"/><glyph d="M411 709q-181 0 -265.5 88t-84.5 280q-1 371 349 371t350 -371q0 -193 -84 -280.5t-265 -87.5zM411 723q173 0 253.5 85t80.5 269q0 356 -335 357q-334 0 -334 -357q0 -184 81 -269t254 -85zM530 1255v-118q0 -80 -57 -88v-2q57 -6 57 -84v-162h-112v205h-17l-2 -205 h-106v542h153q84 0 84 -88zM418 1094v159h-17v-159h17z" glyph-name="registered" horiz-adv-x="821" unicode="®"/><glyph glyph-name="macron" horiz-adv-x="1228" unicode="¯"/><glyph d="M123 1212q-47 0 -81 34t-34 81t34 81t81 34t81 -34t34 -81t-34 -81t-81 -34zM123 1229q41 0 70.5 28.5t29.5 69.5t-29.5 70.5t-70.5 29.5t-69.5 -29.5t-28.5 -70.5t28.5 -69.5t69.5 -28.5z" glyph-name="degree" horiz-adv-x="245" unicode="°"/><glyph d="M176 807h86v-84h-86v-86h-84v86h-84v84h84v82h84v-82zM8 539v84h254v-84h-254z" glyph-name="plusminus" horiz-adv-x="270" unicode="±"/><glyph d="M8 1348l33 86h106l-49 -86h-90z" glyph-name="acute" horiz-adv-x="155" unicode="´"/><glyph d="M117 1434h227v-1536h-100v1450h-19v-1450h-98v1126h-10q-109 0 -109 109v190q0 111 109 111z" glyph-name="paragraph" horiz-adv-x="352" unicode="¶"/><glyph d="M8 641v150h98v-150h-98z" glyph-name="periodcentered" horiz-adv-x="114" unicode="·"/><glyph d="M25 61v-163h-17v163h17z" glyph-name="cedilla" horiz-adv-x="32" unicode="¸"/><glyph d="M53 1188l166 -471l-166 -471h-33l166 471l-166 471h33zM119 1188l166 -471l-166 -471h-33l166 471l-166 471h33z" glyph-name="guillemotright" horiz-adv-x="305" unicode="»"/><glyph d="M133 86h27v-86h-152v86h27v1262h-27v86h125v-1348zM311 1434h17l-144 -1434h-16zM578 371v-84h-25v-287h-100v287h-117v84l59 1063h158v-1063h25zM453 371v977h-7l-18 -977h25z" glyph-name="onequarter" horiz-adv-x="585" unicode="¼"/><glyph d="M133 86h27v-86h-152v86h27v1262h-27v86h125v-1348zM311 1434h17l-144 -1434h-16zM436 84h117v-84h-217v53q0 174 58.5 384t58.5 319v594h-17v-605h-100v586q0 57 25.5 84t83 27t83 -26.5t25.5 -84.5v-553q0 -135 -58.5 -348t-58.5 -346z" glyph-name="onehalf" horiz-adv-x="561" unicode="½"/><glyph d="M225 1335v-512q0 -98 -63 -104v-4q63 -6 63 -97v-518q0 -109 -108.5 -108.5t-108.5 108.5v559h101v-575h16v592h-33v84h33v590h-16v-574h-101v559q0 106 108.5 106t108.5 -106zM377 1434h16l-143 -1434h-17zM643 371v-84h-25v-287h-100v287h-117v84l60 1063h157v-1063h25 zM518 371v977h-6l-18 -977h24z" glyph-name="threequarters" horiz-adv-x="651" unicode="¾"/><glyph d="M8 1266h101v-428q0 -32 58 -76.5t58 -118.5v-541q0 -57 -25.5 -83.5t-83 -26.5t-83 26.5t-25.5 83.5v555h101v-575h16v563q0 23 -29.5 49.5t-58.5 64.5t-29 91v416zM109 1282h-101v152h101v-152z" glyph-name="questiondown" unicode="¿"/><glyph d="M139 0l-2 287h-28l-3 -287h-98l21 1434h188l21 -1434h-99zM111 371h24l-10 985h-4zM170 1450h-90l-49 86h106z" glyph-name="Agrave" horiz-adv-x="245" unicode="À"/><glyph d="M139 0l-2 287h-28l-3 -287h-98l21 1434h188l21 -1434h-99zM111 371h24l-10 985h-4zM76 1450l33 86h106l-49 -86h-90z" glyph-name="Aacute" horiz-adv-x="245" unicode="Á"/><glyph d="M139 0l-2 287h-28l-3 -287h-98l21 1434h188l21 -1434h-99zM111 371h24l-10 985h-4zM133 1450l-8 23h-4l-8 -23h-90l30 86h140l30 -86h-90z" glyph-name="Acircumflex" horiz-adv-x="245" unicode="Â"/><glyph d="M139 0l-2 287h-28l-3 -287h-98l21 1434h188l21 -1434h-99zM111 371h24l-10 985h-4zM14 1450q0 82 54 82q26 0 55 -10.5t37 -10.5t8 13h63q0 -84 -71 -84q-14 0 -41 11t-34 11t-7 -12h-64z" glyph-name="Atilde" horiz-adv-x="245" unicode="Ã"/><glyph d="M16 1450v86h99v-86h-99zM131 1450v86h98v-86h-98zM139 0l-2 287h-28l-3 -287h-98l21 1434h188l21 -1434h-99zM111 371h24l-10 985h-4z" glyph-name="Adieresis" horiz-adv-x="245" unicode="Ä"/><glyph d="M139 0l-2 287h-28l-3 -287h-98l21 1434h188l21 -1434h-99zM111 371h24l-10 985h-4zM125 1442q-53 0 -53 47t53 47t53 -47t-53 -47z" glyph-name="Aring" horiz-adv-x="245" unicode="Å"/><glyph d="M266 1348h-26v-588h26v-86h-26v-588h26v-86h-125v287h-28l-7 -287h-98l41 1434h217v-86zM141 371v985h-4l-22 -985h26z" glyph-name="AE" horiz-adv-x="274" unicode="Æ"/><glyph d="M225 725h-100v623h-16v-1262h16v623h100v-611q0 -106 -108.5 -106t-108.5 106v1237q0 106 108.5 106.5t108.5 -106.5v-610zM121 61v-163h-17v163h17z" glyph-name="Ccedilla" unicode="Ç"/><glyph d="M123 1348h-17v-588h17v-86h-17v-588h17v-86h-115v1434h115v-86zM113 1450h-90l-50 86h107z" glyph-name="Egrave" horiz-adv-x="131" unicode="È"/><glyph d="M123 1348h-17v-588h17v-86h-17v-588h17v-86h-115v1434h115v-86zM25 1450l32 86h107l-49 -86h-90z" glyph-name="Eacute" horiz-adv-x="131" unicode="É"/><glyph d="M123 1348h-17v-588h17v-86h-17v-588h17v-86h-115v1434h115v-86zM76 1450l-8 23h-5l-8 -23h-90l31 86h139l31 -86h-90z" glyph-name="Ecircumflex" horiz-adv-x="131" unicode="Ê"/><glyph d="M123 1348h-17v-588h17v-86h-17v-588h17v-86h-115v1434h115v-86zM-37 1450v86h98v-86h-98zM78 1450v86h98v-86h-98z" glyph-name="Edieresis" horiz-adv-x="131" unicode="Ë"/><glyph d="M8 0v1434h98v-1434h-98zM102 1450h-90l-49 86h107z" glyph-name="Igrave" horiz-adv-x="114" unicode="Ì"/><glyph d="M8 0v1434h98v-1434h-98zM12 1450l33 86h107l-50 -86h-90z" glyph-name="Iacute" horiz-adv-x="114" unicode="Í"/><glyph d="M68 1450l-9 23h-4l-8 -23h-90l31 86h139l31 -86h-90zM8 0v1434h98v-1434h-98z" glyph-name="Icircumflex" horiz-adv-x="114" unicode="Î"/><glyph d="M8 0v1434h98v-1434h-98zM-49 1450v86h98v-86h-98zM66 1450v86h98v-86h-98z" glyph-name="Idieresis" horiz-adv-x="114" unicode="Ï"/><glyph d="M20 1434h109q109 0 109 -111v-1217q0 -106 -109 -106h-109v674h-12v86h12v674zM141 86v1262h-24v-588h12v-86h-12v-588h24z" glyph-name="Eth" horiz-adv-x="245" unicode="Ð"/><glyph d="M227 1434h101v-1434h-195l-20 1356h-4v-1356h-101v1434h195l20 -1358h4v1358zM68 1452q0 82 54 82q26 0 54.5 -10.5t36.5 -10.5t8 13h64q0 -84 -72 -84q-14 0 -41 11t-34 11t-7 -12h-63z" glyph-name="Ntilde" horiz-adv-x="335" unicode="Ñ"/><glyph d="M116.5 1442q108.5 0 108.5 -107v-1237q0 -106 -108.5 -106t-108.5 106v1237q0 107 108.5 107zM125 82v1268h-16v-1268h16zM-117 1827l33 86h107l-50 -86h-90zM164 1450h-90l-49 86h106z" glyph-name="Ograve" unicode="Ò"/><glyph d="M116.5 1442q108.5 0 108.5 -107v-1237q0 -106 -108.5 -106t-108.5 106v1237q0 107 108.5 107zM125 82v1268h-16v-1268h16zM68 1450l32 86h107l-49 -86h-90z" glyph-name="Oacute" unicode="Ó"/><glyph d="M116.5 1442q108.5 0 108.5 -107v-1237q0 -106 -108.5 -106t-108.5 106v1237q0 107 108.5 107zM125 82v1268h-16v-1268h16zM127 1450l-8 23h-4l-9 -23h-90l31 86h139l31 -86h-90z" glyph-name="Ocircumflex" unicode="Ô"/><glyph d="M116.5 1442q108.5 0 108.5 -107v-1237q0 -106 -108.5 -106t-108.5 106v1237q0 107 108.5 107zM125 82v1268h-16v-1268h16zM10 1460q0 82 54 82q26 0 55 -10t37 -10t8 12h63q0 -84 -71 -84q-14 0 -41 11.5t-34 11.5t-7 -13h-64z" glyph-name="Otilde" unicode="Õ"/><glyph d="M116.5 1442q108.5 0 108.5 -107v-1237q0 -106 -108.5 -106t-108.5 106v1237q0 107 108.5 107zM125 82v1268h-16v-1268h16zM10 1450v86h99v-86h-99zM125 1450v86h98v-86h-98z" glyph-name="Odieresis" unicode="Ö"/><glyph d="M248 774l-60 -59l60 -60l-60 -57l-59 59l-59 -59l-62 57l62 60l-62 59l60 60l61 -60l59 60z" glyph-name="multiply" horiz-adv-x="256" unicode="×"/><glyph d="M233 1335v-1237q0 -106 -108 -106q-72 0 -94 43l-6 -35h-17l10 68q-2 10 -2 30v1237q0 106 109 107q72 0 94 -43l6 35h17l-11 -68q2 -10 2 -31zM133 82v1268h-16v-1268h16z" glyph-name="Oslash" horiz-adv-x="249" unicode="Ø"/><glyph d="M125 1434h100v-1334q0 -109 -108.5 -108.5t-108.5 108.5v1334h101v-1350h16v1350zM164 1450h-90l-49 86h106z" glyph-name="Ugrave" unicode="Ù"/><glyph d="M125 1434h100v-1334q0 -109 -108.5 -108.5t-108.5 108.5v1334h101v-1350h16v1350zM72 1450l32 86h107l-49 -86h-90z" glyph-name="Uacute" unicode="Ú"/><glyph d="M125 1434h100v-1334q0 -109 -108.5 -108.5t-108.5 108.5v1334h101v-1350h16v1350zM125 1450l-8 23h-4l-9 -23h-90l31 86h139l31 -86h-90z" glyph-name="Ucircumflex" unicode="Û"/><glyph d="M10 1450v86h99v-86h-99zM125 1450v86h98v-86h-98zM125 1434h100v-1334q0 -109 -108.5 -108.5t-108.5 108.5v1334h101v-1350h16v1350z" glyph-name="Udieresis" unicode="Ü"/><glyph d="M172 0h-98v371l-66 1063h98l15 -797h4l14 797h99l-66 -1063v-371zM78 1450l33 86h106l-49 -86h-90z" glyph-name="Yacute" horiz-adv-x="245" unicode="Ý"/><glyph d="M109 1434v-1434h-101v1434h101zM8 102h109q109 0 108 107v1016q0 106 -108 106h-109v-1229zM125 186h-16v1061h16v-1061z" glyph-name="Thorn" unicode="Þ"/><glyph d="M225 1331v-510q0 -96 -63 -104v-2q63 -12 63 -99v-510q0 -106 -108 -106v82h12v592h-12v86h12v590h-25v-1350h-96v1331q0 111 108.5 111t108.5 -111z" glyph-name="germandbls" unicode="ß"/><glyph d="M166 1348h-90l-49 86h106zM8 758v475q0 106 108.5 106t108.5 -106v-1233h-100v20h-4q-18 -29 -53 -28q-59 0 -60 61v637q0 59 60 60q33 0 53 -27h4v522h-16v-487h-101zM125 86v571h-16v-571h16z" glyph-name="agrave" unicode="à"/><glyph d="M72 1348l32 86h107l-49 -86h-90zM8 758v475q0 106 108.5 106t108.5 -106v-1233h-100v20h-4q-18 -29 -53 -28q-59 0 -60 61v637q0 59 60 60q33 0 53 -27h4v522h-16v-487h-101zM125 86v571h-16v-571h16z" glyph-name="aacute" unicode="á"/><glyph d="M127 1348l-8 22h-4l-9 -22h-90l31 86h139l31 -86h-90zM8 758v475q0 106 108.5 106t108.5 -106v-1233h-100v20h-4q-18 -29 -53 -28q-59 0 -60 61v637q0 59 60 60q33 0 53 -27h4v522h-16v-487h-101zM125 86v571h-16v-571h16z" glyph-name="acircumflex" unicode="â"/><glyph d="M8 758v475q0 106 108.5 106t108.5 -106v-1233h-100v20h-4q-18 -29 -53 -28q-59 0 -60 61v637q0 59 60 60q33 0 53 -27h4v522h-16v-487h-101zM125 86v571h-16v-571h16zM10 1360q0 82 54 82q26 0 55 -10.5t37 -10.5t8 13h63q0 -84 -71 -84q-14 0 -41 11t-34 11t-7 -12h-64z " glyph-name="atilde" unicode="ã"/><glyph d="M8 758v475q0 106 108.5 106t108.5 -106v-1233h-100v20h-4q-18 -29 -53 -28q-59 0 -60 61v637q0 59 60 60q33 0 53 -27h4v522h-16v-487h-101zM125 86v571h-16v-571h16zM10 1348v86h99v-86h-99zM125 1348v86h98v-86h-98z" glyph-name="adieresis" unicode="ä"/><glyph d="M8 758v475q0 106 108.5 106t108.5 -106v-1233h-100v20h-4q-18 -29 -53 -28q-59 0 -60 61v637q0 59 60 60q33 0 53 -27h4v522h-16v-487h-101zM125 86v571h-16v-571h16zM114.5 1348q-53.5 0 -53.5 47t53.5 47t53.5 -47t-53.5 -47z" glyph-name="aring" unicode="å"/><glyph d="M225 1245v-536h17v536h-17zM342 631h-117v-545h17v528h100v-514q0 -109 -106 -108q-59 0 -89 47h-2q-6 -47 -71 -47t-66 61v639q0 59 62 60q35 0 53 -29h2v522h-16v-485h-101v473q0 106 109 106q41 0 65 -12q25 12 54 12q106 0 106 -106v-602zM109 659v-573h16v573h-16z " glyph-name="ae" horiz-adv-x="350" unicode="æ"/><glyph d="M225 676h-100v573h-16v-1165h16v575h100v-561q0 -106 -108.5 -106t-108.5 106v1135q0 106 108.5 106t108.5 -106v-557zM121 61v-163h-17v163h17z" glyph-name="ccedilla" unicode="ç"/><glyph d="M164 1348h-90l-49 86h106zM109 631v-545h16v530h100v-518q0 -106 -108.5 -106t-108.5 106v1135q0 106 108.5 106t108.5 -106v-602h-116zM125 1245h-16v-538h16v538z" glyph-name="egrave" unicode="è"/><glyph d="M68 1348l32 86h107l-49 -86h-90zM109 631v-545h16v530h100v-518q0 -106 -108.5 -106t-108.5 106v1135q0 106 108.5 106t108.5 -106v-602h-116zM125 1245h-16v-538h16v538z" glyph-name="eacute" unicode="é"/><glyph d="M125 1348l-8 22h-4l-9 -22h-90l31 86h139l31 -86h-90zM109 631v-545h16v530h100v-518q0 -106 -108.5 -106t-108.5 106v1135q0 106 108.5 106t108.5 -106v-602h-116zM125 1245h-16v-538h16v538z" glyph-name="ecircumflex" unicode="ê"/><glyph d="M109 631v-545h16v530h100v-518q0 -106 -108.5 -106t-108.5 106v1135q0 106 108.5 106t108.5 -106v-602h-116zM125 1245h-16v-538h16v538zM10 1348v86h99v-86h-99zM125 1348v86h98v-86h-98z" glyph-name="edieresis" unicode="ë"/><glyph d="M8 0v1331h98v-1331h-98zM102 1348h-90l-49 86h107z" glyph-name="igrave" horiz-adv-x="114" unicode="ì"/><glyph d="M8 0v1331h98v-1331h-98zM12 1348l33 86h107l-50 -86h-90z" glyph-name="iacute" horiz-adv-x="114" unicode="í"/><glyph d="M8 0v1331h98v-1331h-98zM68 1348l-9 22h-4l-8 -22h-90l31 86h139l31 -86h-90z" glyph-name="icircumflex" horiz-adv-x="114" unicode="î"/><glyph d="M8 0v1331h98v-1331h-98zM-49 1348v86h98v-86h-98zM66 1348v86h98v-86h-98z" glyph-name="idieresis" horiz-adv-x="114" unicode="ï"/><glyph d="M225 1157v-1059q0 -106 -108.5 -106t-108.5 106v1180q0 61 60 61q35 0 53 -28h4q-8 33 -25 57l-49 -6v16l39 4q-14 18 -43 52h98q11 -11 27 -43l53 6v-17l-43 -4q43 -90 43 -219zM125 86v1159h-16v-1159h16z" glyph-name="eth" unicode="ð"/><glyph d="M10 1360q0 82 54 82q26 0 55 -10.5t37 -10.5t8 13h63q0 -84 -71 -84q-14 0 -41 11t-34 11t-7 -12h-64zM109 1311h4q18 29 53 28q59 0 59 -61v-1278h-100v1247h-16v-1247h-101v1331h101v-20z" glyph-name="ntilde" unicode="ñ"/><glyph d="M166 1348h-90l-49 86h106zM116.5 1339q108.5 0 108.5 -106v-1135q0 -106 -108.5 -106t-108.5 106v1135q0 106 108.5 106zM125 86v1159h-16v-1159h16z" glyph-name="ograve" unicode="ò"/><glyph d="M70 1348l32 86h107l-49 -86h-90zM116.5 1339q108.5 0 108.5 -106v-1135q0 -106 -108.5 -106t-108.5 106v1135q0 106 108.5 106zM125 86v1159h-16v-1159h16z" glyph-name="oacute" unicode="ó"/><glyph d="M127 1348l-8 22h-4l-9 -22h-90l31 86h139l31 -86h-90zM116.5 1339q108.5 0 108.5 -106v-1135q0 -106 -108.5 -106t-108.5 106v1135q0 106 108.5 106zM125 86v1159h-16v-1159h16z" glyph-name="ocircumflex" unicode="ô"/><glyph d="M116.5 1339q108.5 0 108.5 -106v-1135q0 -106 -108.5 -106t-108.5 106v1135q0 106 108.5 106zM125 86v1159h-16v-1159h16zM8 1360q0 82 54 82q26 0 55 -10.5t37 -10.5t8 13h63q0 -84 -71 -84q-14 0 -41 11t-34 11t-7 -12h-64z" glyph-name="otilde" unicode="õ"/><glyph d="M10 1348v86h99v-86h-99zM125 1348v86h98v-86h-98zM116.5 1339q108.5 0 108.5 -106v-1135q0 -106 -108.5 -106t-108.5 106v1135q0 106 108.5 106zM125 86v1159h-16v-1159h16z" glyph-name="odieresis" unicode="ö"/><glyph d="M125 772q-68 0 -68 66q-1 66 65 65q66 1 66 -65t-63 -66zM125 526q-68 0 -68 65.5t68 65.5q63 0 63 -65.5t-63 -65.5zM238 758v-86h-230v86h230z" glyph-name="divide" horiz-adv-x="245" unicode="÷"/><glyph d="M233 1233v-1135q0 -106 -108 -106q-72 0 -94 43l-6 -35h-17l10 68q-2 10 -2 30v1135q0 106 109 106q72 0 94 -43l6 35h17l-11 -67q2 -10 2 -31zM133 82v1165h-16v-1165h16z" glyph-name="oslash" horiz-adv-x="241" unicode="ø"/><glyph d="M162 1348h-90l-49 86h106zM125 20h-4q-18 -31 -53 -30q-59 0 -60 63v1278h101v-1247h16v1247h100v-1331h-100v20z" glyph-name="ugrave" unicode="ù"/><glyph d="M125 20h-4q-18 -31 -53 -30q-59 0 -60 63v1278h101v-1247h16v1247h100v-1331h-100v20zM70 1348l32 86h107l-49 -86h-90z" glyph-name="uacute" unicode="ú"/><glyph d="M125 20h-4q-18 -31 -53 -30q-59 0 -60 63v1278h101v-1247h16v1247h100v-1331h-100v20zM127 1348l-8 22h-4l-9 -22h-90l31 86h139l31 -86h-90z" glyph-name="ucircumflex" unicode="û"/><glyph d="M125 20h-4q-18 -31 -53 -30q-59 0 -60 63v1278h101v-1247h16v1247h100v-1331h-100v20zM8 1348v86h98v-86h-98zM123 1348v86h98v-86h-98z" glyph-name="udieresis" unicode="ü"/><glyph d="M68 -102h-52v84h35l-43 1349h101l10 -1274h4l10 1274h100l-38 -1325q-2 -61 -30 -84.5t-97 -23.5zM78 1348l33 86h106l-49 -86h-90z" glyph-name="yacute" horiz-adv-x="241" unicode="ý"/><glyph d="M109 -102h-101v1536h101v-123h4q10 29 45 28q68 0 67 -67v-1213q0 -68 -67 -67q-37 0 -45 28h-4v-122zM109 1245v-1159h16v1159h-16z" glyph-name="thorn" unicode="þ"/><glyph d="M68 -102h-52v84h35l-43 1349h101l10 -1274h4l10 1274h100l-38 -1325q-2 -61 -30 -84.5t-97 -23.5zM14 1348v86h99v-86h-99zM129 1348v86h98v-86h-98z" glyph-name="ydieresis" horiz-adv-x="241" unicode="ÿ"/><glyph d="M123 1348v86h100v-86h-100zM106 -102v84h17v1349h100v-1325q0 -59 -23.5 -83.5t-84.5 -24.5h-9zM8 0v1331h98v-1331h-98zM8 1348v86h98v-86h-98z" glyph-name="ij" horiz-adv-x="231" unicode="ĳ"/><glyph d="M106 1434v-1348h17v-86h-115v1434h98z" glyph-name="Ldot" horiz-adv-x="131" unicode="Ŀ"/><glyph d="M8 1434h98v-1434h-98v1434z" glyph-name="ldot" horiz-adv-x="114" unicode="ŀ"/><glyph d="M225 1348v-588h17v-86h-17v-588h17v-86h-70q-23 -8 -55 -8q-109 0 -109 106v1237q0 106 109 107q33 0 55 -8h70v-86h-17zM125 82v1268h-16v-1268h16z" glyph-name="OE" horiz-adv-x="249" unicode="Œ"/><glyph d="M225 621v-535h19v518h100v-504q0 -109 -108 -108q-35 0 -60 16q-25 -16 -59 -16q-109 0 -109 108v1131q0 109 109 108q35 0 59 -16q25 16 60 16q109 0 108 -108v-610h-119zM127 86v1161h-18v-1161h18zM244 1247h-19v-551h19v551z" glyph-name="oe" horiz-adv-x="352" unicode="œ"/><glyph d="M172 0h-98v371l-66 1063h98l15 -797h4l14 797h99l-66 -1063v-371zM131 1450l-8 23h-4l-8 -23h-91l31 86h139l31 -86h-90z" glyph-name="Ycircumflex" horiz-adv-x="245" unicode="Ŷ"/><glyph d="M68 -102h-52v84h35l-43 1349h101l10 -1274h4l10 1274h100l-38 -1325q-2 -61 -30 -84.5t-97 -23.5zM131 1348l-8 22h-4l-8 -22h-91l31 86h139l31 -86h-90z" glyph-name="ycircumflex" horiz-adv-x="241" unicode="ŷ"/><glyph d="M172 0h-98v371l-66 1063h98l15 -797h4l14 797h99l-66 -1063v-371zM16 1450v86h99v-86h-99zM131 1450v86h98v-86h-98z" glyph-name="Ydieresis" horiz-adv-x="245" unicode="Ÿ"/><glyph d="M119 1348l-8 22h-5l-8 -22h-90l31 86h139l31 -86h-90z" glyph-name="circumflex" horiz-adv-x="217" unicode="ˆ"/><glyph d="M106 1411h5l8 23h90l-31 -86h-139l-31 86h90z" glyph-name="caron" horiz-adv-x="217" unicode="ˇ"/><glyph d="M121 1434h55q0 -37 -23.5 -61.5t-59.5 -24.5t-60.5 25.5t-24.5 60.5h55q0 -10 9.5 -19.5t19.5 -9.5t19.5 9.5t9.5 19.5z" glyph-name="breve" horiz-adv-x="184" unicode="˘"/><glyph glyph-name="dotaccent" horiz-adv-x="1228" unicode="˙"/><glyph d="M61.5 1348q-53.5 0 -53.5 47t53.5 47t53.5 -47t-53.5 -47z" glyph-name="ring" horiz-adv-x="122" unicode="˚"/><glyph d="M8 0v666h101l-27 -666h-74z" glyph-name="ogonek" horiz-adv-x="116" unicode="˛"/><glyph d="M8 1360q0 82 54 82q26 0 55 -10.5t37 -10.5t8 13h63q0 -84 -71 -84q-14 0 -41 11t-34 11t-7 -12h-64z" glyph-name="tilde" unicode="˜"/><glyph d="M8 1348l21 86h102l-22 -86h-101zM123 1348l22 86h101l-21 -86h-102z" glyph-name="hungarumlaut" horiz-adv-x="253" unicode="˝"/><glyph d="M172 0h-98v371l-66 1063h98l15 -797h4l14 797h99l-66 -1063v-371zM168 1450h-90l-49 86h106z" glyph-name="Ygrave" horiz-adv-x="245" unicode="Ỳ"/><glyph d="M68 -102h-52v84h35l-43 1349h101l10 -1274h4l10 1274h100l-38 -1325q-2 -61 -30 -84.5t-97 -23.5zM164 1348h-90l-49 86h106z" glyph-name="ygrave" horiz-adv-x="241" unicode="ỳ"/><glyph d="M225 625h-217v84h217v-84z" glyph-name="endash" unicode="–"/><glyph d="M344 625h-336v84h336v-84z" glyph-name="emdash" horiz-adv-x="352" unicode="—"/><glyph d="M109 1434v-666h-74l-27 666h101z" glyph-name="quoteleft" horiz-adv-x="116" unicode="‘"/><glyph d="M8 768v666h101l-27 -666h-74z" glyph-name="quoteright" horiz-adv-x="114" unicode="’"/><glyph d="M8 0v666h101l-27 -666h-74z" glyph-name="quotesinglbase" horiz-adv-x="114" unicode="‚"/><glyph d="M225 1434v-666h-73l-27 666h100zM8 1434h101l24 -666h-76z" glyph-name="quotedblleft" unicode="“"/><glyph d="M8 768v666h101l-27 -666h-74zM100 768l25 666h100l-49 -666h-76z" glyph-name="quotedblright" unicode="”"/><glyph d="M8 0v666h101l-27 -666h-74zM8 0h74l27 666h-101v-666z" glyph-name="quotedblbase" horiz-adv-x="114" unicode="„"/><glyph d="M240 1307h125v-105h-125v-1202h-107v1202h-125v105h125v127h107v-127z" glyph-name="dagger" horiz-adv-x="372" unicode="†"/><glyph d="M365 1202h-125v-971h125v-104h-125v-127h-107v127h-125v104h125v971h-125v105h125v127h107v-127h125v-105z" glyph-name="daggerdbl" horiz-adv-x="372" unicode="‡"/><glyph d="M8 641v150h98v-150h-98z" glyph-name="bullet" horiz-adv-x="114" unicode="•"/><glyph d="M129 0v152h98v-152h-98zM248 0v152h98v-152h-98zM8 0v152h98v-152h-98z" glyph-name="ellipsis" horiz-adv-x="354" unicode="…"/><glyph d="M124.5 1442q108.5 0 108.5 -111v-520q0 -111 -108.5 -111t-108.5 111v520q0 111 108.5 111zM131 795v555h-16v-555h16zM442 1434h17l-432 -1434h-19zM342 733q109 0 109 -106v-529q0 -106 -109 -106t-109 106v529q0 106 109 106zM352 84v557h-16v-557h16zM575.5 733 q108.5 0 108.5 -106v-529q0 -106 -108.5 -106t-108.5 106v529q0 106 108.5 106zM586 84v557h-17v-557h17z" glyph-name="perthousand" horiz-adv-x="692" unicode="‰"/><glyph d="M182 246l-166 471l166 471h33l-166 -471l166 -471h-33z" glyph-name="guilsinglleft" horiz-adv-x="231" unicode="‹"/><glyph d="M49 1188l166 -471l-166 -471h-33l166 471l-166 471h33z" glyph-name="guilsinglright" horiz-adv-x="231" unicode="›"/><glyph d="M143 1434h17l-144 -1434h-16z" glyph-name="fraction" horiz-adv-x="159" unicode="⁄"/><glyph d="M295 807h-102v534h-17v-550h68v-66h-68v-16h68v-66h-68v-549h17v531h102v-525q0 -109 -110.5 -108.5t-110.5 108.5v543h-66v66h66v16h-66v66h66v542q0 109 110.5 109t110.5 -109v-526z" glyph-name="Euro" horiz-adv-x="303" unicode="€"/><glyph d="M8 1434h107v-50h-25v-667h-57v667h-25v50zM393 1434v-717h-57v672h-8l-11 -672h-108l-12 672h-4v-672h-62v717h125l6 -672h4l4 672h123z" glyph-name="trademark" horiz-adv-x="401" unicode="™"/><glyph d="M133 86h27v-86h-152v86h27v1262h-27v86h125v-1348zM311 1434h17l-144 -1434h-16zM453 778v572h-17v-572h17zM436 692v-606h17l2 606h-19zM336 831v500q0 57 25.5 84t83 27t83 -26.5t25.5 -84.5v-500q0 -90 -64 -94v-4q63 -10 64 -98v-541q0 -102 -108.5 -102t-108.5 102 v541q0 90 63 98v4q-63 2 -63 94z" glyph-name="oneeighth" horiz-adv-x="561" unicode="⅛"/><glyph d="M225 1335v-512q0 -98 -63 -104v-4q63 -6 63 -97v-518q0 -109 -108.5 -108.5t-108.5 108.5v559h101v-575h16v592h-33v84h33v590h-16v-574h-101v559q0 106 108.5 106t108.5 -106zM377 1434h16l-143 -1434h-17zM518 778v572h-16v-572h16zM502 692v-606h16l2 606h-18z M401 831v500q0 57 26 84t83 27t82.5 -26.5t25.5 -84.5v-500q0 -90 -63 -94v-4q63 -10 63 -98v-541q0 -102 -108.5 -102t-108.5 102v541q0 90 64 98v4q-64 2 -64 94z" glyph-name="threeeighths" horiz-adv-x="626" unicode="⅜"/><glyph d="M109 1348v-510h4q12 20 45 20q68 0 67 -67v-691q0 -109 -108.5 -108.5t-108.5 108.5v613h101v-627h16v680h-16v-35h-101v703h217v-86h-116zM377 1434h16l-143 -1434h-17zM518 778v572h-16v-572h16zM502 692v-606h16l2 606h-18zM401 831v500q0 57 26 84t83 27t82.5 -26.5 t25.5 -84.5v-500q0 -90 -63 -94v-4q63 -10 63 -98v-541q0 -102 -108.5 -102t-108.5 102v541q0 90 64 98v4q-64 2 -64 94z" glyph-name="fiveeighths" horiz-adv-x="626" unicode="⅝"/><glyph d="M8 1348v86h135v-86l-32 -1348h-103l33 1348h-33zM295 1434h16l-143 -1434h-16zM436 778v572h-16v-572h16zM420 692v-606h16l2 606h-18zM319 831v500q0 57 26 84t83 27t83 -26.5t26 -84.5v-500q0 -90 -64 -94v-4q63 -10 64 -98v-541q0 -102 -109 -102t-109 102v541 q0 90 64 98v4q-64 2 -64 94z" glyph-name="seveneighths" horiz-adv-x="544" unicode="⅞"/><glyph d="M125 84v1165h-16v-1165h16zM145 1434q0 -2 10.5 -15.5t40 -58t29.5 -201.5v-1059q0 -109 -108.5 -108.5t-108.5 108.5v1180q0 59 60 59q35 0 53 -26h4q-15 53 -76 121h96z" glyph-name="partialdiff" unicode="∂"/><glyph d="M1477 706q0 -364 -180.5 -543t-553.5 -179t-553 174l-163 -158h-27l178 172q-170 178 -170 551t179 552t561 179t563 -192l180 172h27l-195 -187q154 -177 154 -541zM25 724q0 -364 168 -540l1105 1063q-176 189 -551 189t-548.5 -174t-173.5 -538zM744 2q364 0 540 175 t176 529t-149 527l-1106 -1061q175 -170 539 -170z" glyph-name="emptyset" horiz-adv-x="1517" unicode="∅"/><glyph d="M295 1434v-86h-35v-1348h-100v1348h-17v-1348h-100v1348h-35v86h287z" glyph-name="product" horiz-adv-x="303" unicode="∏"/><glyph d="M8 1434h311v-105h-192l98 -663l-98 -662h192v-106h-311v96l103 672l-103 673v95z" glyph-name="summation" horiz-adv-x="327" unicode="∑"/><glyph d="M8 758h252v-84h-252v84z" glyph-name="minus" horiz-adv-x="268" unicode="−"/><glyph d="M-133 666v20h274l95 -815h6l180 1817h18l-190 -1924h-23l-106 902h-254z" glyph-name="radical" horiz-adv-x="1228" unicode="√"/><glyph d="M452 535q-66 0 -145 77q-82 -78 -149 -78t-108.5 41t-41.5 103t43 105.5t108 43.5t150 -77q73 78 145 78t112 -41.5t40 -103.5t-44 -105t-110 -43zM450 631q26 0 42 14t16 35q0 53 -49 53q-31 0 -86 -51q51 -51 77 -51zM156 631q37 0 86 49q-53 53 -80 53t-41.5 -15.5 t-14.5 -37.5q1 -49 50 -49z" glyph-name="infinity" horiz-adv-x="614" unicode="∞"/><glyph d="M-24 -8q-110 0 -89 108l121 613h98l-122 -629h18l123 633l2 12h-117l17 84h116l101 520q23 111 131 111t88 -111l-94 -504h-103l101 521h-17l-104 -537h119l-17 -84h-119l-123 -635q-20 -102 -130 -102z" glyph-name="integral" horiz-adv-x="354" unicode="∫"/><glyph d="M8 731q0 103 68 103q30 0 67 -13.5t47 -13.5t11 16h78q0 -55 -21.5 -79.5t-54.5 -24.5t-66 13t-39 13q-12 0 -12 -16h-78v2zM8 606q0 103 66 103q32 0 69 -12.5t47 -12.5t11 16h78v-2q0 -55 -21.5 -79.5t-54.5 -24.5t-66 13.5t-39 13.5q-12 0 -12 -17h-78v2z" glyph-name="approxequal" horiz-adv-x="286" unicode="≈"/><glyph d="M578 725h-316v84h316v-84zM578 623h-316v84h316v-84zM152 1434h16l-143 -1434h-17z" glyph-name="notequal" horiz-adv-x="585" unicode="≠"/><glyph d="M324 793l-256 -25v-4l256 -23v-84l-316 31v158l316 31v-84zM8 553v82h316v-82h-316z" glyph-name="lessequal" horiz-adv-x="331" unicode="≤"/><glyph d="M8 877l316 -31v-158l-316 -31v84l256 23v4l-256 25v84zM8 553v82h316v-82h-316z" glyph-name="greaterequal" horiz-adv-x="331" unicode="≥"/><glyph d="M270 -158l-262 793l264 799h134l266 -799l-266 -793h-136zM340 1223l188 -586l-192 -588l-189 584zM270 -158h136l266 793l-266 799h-134l-264 -799zM340 1223l-193 -590l189 -584l192 588z" glyph-name="lozenge" horiz-adv-x="679" unicode="◊"/><glyph d="M143 1434h105v-86h-115v-1348h-98v1245h-27v86h27q-1 103 108 103zM150 0v1331h98v-1331h-98z" glyph-name="uniFB01" horiz-adv-x="256" unicode="ﬁ"/><glyph d="M143 1434h105v-1434h-98v1348h-17v-1348h-98v1245h-27v86h27q-1 103 108 103z" glyph-name="uniFB02" horiz-adv-x="256" unicode="ﬂ"/><glyph d="M8 100v1235q0 106 108.5 106.5t108.5 -106.5v-1235q0 -106 -108.5 -106t-108.5 106zM129 86v1264h-25v-1264h25z" glyph-name="zero.aalt.aalt"/><glyph d="M133 86h27v-86h-152v86h27v1262h-27v86h125v-1348z" glyph-name="one.aalt.aalt" horiz-adv-x="167"/><glyph d="M109 84h116v-84h-217v53q0 174 58.5 384t58.5 319v594h-16v-605h-101v586q0 57 25.5 84t83 27t83 -26.5t25.5 -84.5v-553q0 -135 -58 -348t-58 -346z" glyph-name="two.aalt.aalt"/><glyph d="M225 1335v-512q0 -98 -63 -104v-4q63 -6 63 -97v-518q0 -109 -108.5 -108.5t-108.5 108.5v559h101v-575h16v592h-33v84h33v590h-16v-574h-101v559q0 106 108.5 106t108.5 -106z" glyph-name="three.aalt.aalt"/><glyph d="M250 371v-84h-25v-287h-100v287h-117v84l60 1063h157v-1063h25zM125 371v977h-6l-19 -977h25z" glyph-name="four.aalt.aalt" horiz-adv-x="258"/><glyph d="M109 1348v-510h4q12 20 45 20q68 0 67 -67v-691q0 -109 -108.5 -108.5t-108.5 108.5v613h101v-627h16v680h-16v-35h-101v703h217v-86h-116z" glyph-name="five.aalt.aalt"/><glyph d="M225 944h-100v406h-16v-435h4q12 18 45 19q68 0 67 -66v-768q0 -109 -108.5 -108.5t-108.5 108.5v1233q0 109 108.5 109t108.5 -109v-389zM125 850h-16v-764h16v764z" glyph-name="six.aalt.aalt"/><glyph d="M8 1348v86h135v-86l-32 -1348h-103l33 1348h-33z" glyph-name="seven.aalt.aalt" horiz-adv-x="151"/><glyph d="M125 778v572h-16v-572h16zM109 692v-606h16l2 606h-18zM8 831v500q0 57 25.5 84t83 27t83 -26.5t25.5 -84.5v-500q0 -90 -63 -94v-4q63 -10 63 -98v-541q0 -102 -108.5 -102t-108.5 102v541q0 90 64 98v4q-64 2 -64 94z" glyph-name="eight.aalt.aalt"/><glyph d="M8 489h101v-405h16v434h-4q-12 -18 -45 -18q-68 0 -68 65v768q0 109 108.5 109t108.5 -109v-1233q0 -109 -108.5 -108.5t-108.5 108.5v389zM109 584h16v764h-16v-764z" glyph-name="nine.aalt.aalt"/><glyph d="M8 303v1235q0 106 108.5 106.5t108.5 -106.5v-1235q0 -106 -108.5 -106t-108.5 106zM129 289v1263h-25v-1263h25z" glyph-name="zero.aalt"/><glyph d="M133 291h27v-86h-152v86h27v1261h-27v86h125v-1347z" glyph-name="one.aalt" horiz-adv-x="167"/><glyph d="M109 289h116v-84h-217v53q0 174 58.5 384t58.5 319v593h-16v-604h-101v586q0 57 25.5 84t83 27t83 -27t25.5 -84v-553q0 -135 -58 -348t-58 -346z" glyph-name="two.aalt"/><glyph d="M225 1540v-512q0 -98 -63 -104v-4q63 -6 63 -97v-518q0 -109 -108.5 -108.5t-108.5 108.5v559h101v-575h16v592h-33v84h33v589h-16v-573h-101v559q0 106 108.5 106t108.5 -106z" glyph-name="three.aalt"/><glyph d="M250 575v-83h-25v-287h-100v287h-117v83l60 1063h157v-1063h25zM125 575v977h-6l-19 -977h25z" glyph-name="four.aalt" horiz-adv-x="258"/><glyph d="M109 1552v-510h4q12 20 45 21q68 0 67 -68v-690q0 -109 -108.5 -108.5t-108.5 108.5v613h101v-627h16v680h-16v-35h-101v702h217v-86h-116z" glyph-name="five.aalt"/><glyph d="M225 1149h-100v405h-16v-434h4q12 18 45 19q68 0 67 -66v-768q0 -109 -108.5 -108.5t-108.5 108.5v1233q0 109 108.5 109t108.5 -109v-389zM125 1055h-16v-764h16v764z" glyph-name="six.aalt"/><glyph d="M8 1552v86h135v-86l-32 -1347h-103l33 1347h-33z" glyph-name="seven.aalt" horiz-adv-x="151"/><glyph d="M125 983v571h-16v-571h16zM109 897v-606h16l2 606h-18zM8 1036v500q0 57 25.5 84t83 27t83 -27t25.5 -84v-500q0 -90 -63 -94v-4q63 -10 63 -98v-541q0 -102 -108.5 -102t-108.5 102v541q0 90 64 98v4q-64 2 -64 94z" glyph-name="eight.aalt"/><glyph d="M8 694h101v-405h16v434h-4q-12 -18 -45 -18q-68 0 -68 65v768q0 109 108.5 109t108.5 -109v-1233q0 -109 -108.5 -108.5t-108.5 108.5v389zM109 788h16v764h-16v-764z" glyph-name="nine.aalt"/><glyph glyph-name="glyph261" horiz-adv-x="1228"/><glyph glyph-name="glyph262" horiz-adv-x="1228"/><glyph glyph-name="glyph263" horiz-adv-x="1228"/><glyph glyph-name="glyph264" horiz-adv-x="1228"/><glyph glyph-name="glyph265" horiz-adv-x="1228"/><glyph glyph-name="glyph266" horiz-adv-x="1228"/></font>
</defs>
</svg>
